<svg xmlns="http://www.w3.org/2000/svg" width="260" height="253" viewBox="0 0 260 253" version="1.1">
	<path d="M 69 0.378 C 69 0.585, 69.675 1.315, 70.500 2 C 71.729 3.020, 72 2.951, 72 1.622 C 72 0.730, 71.325 0, 70.500 0 C 69.675 0, 69 0.170, 69 0.378 M 74 1.500 C 74 2.333, 74.889 3, 76 3 C 78.384 3, 78.653 1.464, 76.418 0.607 C 74.183 -0.251, 74 -0.183, 74 1.500 M 153.980 1.524 C 153.284 2.362, 152.909 3.242, 153.145 3.479 C 153.382 3.715, 154.125 3.030, 154.796 1.955 C 156.248 -0.370, 155.764 -0.625, 153.980 1.524 M 158.435 0.895 C 158.740 1.388, 158.288 2.059, 157.431 2.388 C 154.899 3.360, 156.664 4.703, 159.857 4.234 C 162.250 3.883, 162.939 4.234, 163.534 6.107 C 163.988 7.539, 163.836 8.555, 163.133 8.789 C 161.829 9.224, 161.587 11, 162.831 11 C 163.288 11, 164.233 9.933, 164.931 8.628 C 166.015 6.604, 165.934 5.946, 164.378 4.128 C 163.376 2.958, 161.981 2, 161.278 2 C 160.575 2, 160 1.550, 160 1 C 160 0.450, 159.523 0, 158.941 0 C 158.359 0, 158.131 0.403, 158.435 0.895 M 165.693 1.778 C 166.687 2.511, 167.368 3.761, 167.206 4.556 C 166.753 6.782, 168.277 6.173, 170.614 3.195 L 172.728 0.500 168.307 0.472 C 164.389 0.447, 164.092 0.595, 165.693 1.778 M 64.989 4.028 C 64.270 5.763, 61.953 8.326, 59.841 9.724 C 57.728 11.122, 56 12.908, 56 13.692 C 56 14.476, 56.399 14.872, 56.886 14.570 C 57.374 14.269, 58.015 14.951, 58.312 16.085 C 58.609 17.220, 59.803 18.397, 60.967 18.702 C 63.038 19.243, 63.312 21.063, 61.418 21.694 C 60.277 22.074, 54.520 16.996, 53.762 14.940 C 53.359 13.848, 52.538 14.215, 50.365 16.460 C 48.789 18.089, 48.468 18.622, 49.651 17.645 C 51.124 16.429, 52.017 16.219, 52.487 16.979 C 52.864 17.589, 52.580 18.801, 51.856 19.674 C 50.686 21.083, 50.892 21.183, 53.700 20.566 C 56.228 20.011, 57.066 20.254, 57.883 21.781 C 58.636 23.188, 58.507 24.259, 57.396 25.845 C 56.566 27.030, 56.095 28, 56.350 28 C 56.961 28, 79 6.493, 79 5.897 C 79 5.644, 77.820 5.339, 76.379 5.219 C 74.289 5.046, 73.983 5.274, 74.870 6.343 C 75.482 7.081, 75.676 7.990, 75.302 8.365 C 74.928 8.739, 72.748 7.206, 70.458 4.959 L 66.295 0.873 64.989 4.028 M 241 4.059 C 241 4.641, 240.517 4.819, 239.926 4.454 C 239.336 4.089, 239.444 4.738, 240.167 5.895 C 240.890 7.053, 241.710 8, 241.991 8 C 242.271 8, 242.500 6.875, 242.500 5.500 C 242.500 4.125, 242.162 3, 241.750 3 C 241.338 3, 241 3.477, 241 4.059 M 65.966 5.541 C 64.992 6.715, 64.968 7.634, 65.861 9.595 C 66.749 11.543, 67.635 12.058, 69.681 11.816 C 71.147 11.642, 72.552 10.874, 72.803 10.109 C 73.147 9.062, 72.624 8.877, 70.692 9.363 C 67.753 10.100, 66.277 8.576, 67.962 6.545 C 68.637 5.733, 68.718 4.944, 68.162 4.600 C 67.647 4.282, 66.659 4.705, 65.966 5.541 M 244.554 5.719 C 244.223 6.581, 244.150 7.483, 244.391 7.724 C 244.631 7.965, 245.789 8.013, 246.962 7.831 C 249.077 7.503, 249.078 7.485, 247.126 5.826 C 245.358 4.325, 245.094 4.314, 244.554 5.719 M 153 6.937 C 153 8.136, 152.603 8.873, 152.118 8.573 C 151.368 8.109, 146.589 11.108, 145 13.038 C 144.725 13.373, 143.637 13.965, 142.583 14.356 C 141.232 14.856, 140.979 15.379, 141.725 16.125 C 142.472 16.872, 143.371 16.872, 144.767 16.125 C 146.323 15.292, 147.097 15.450, 148.374 16.861 C 150.475 19.182, 150.456 22.645, 148.336 23.832 C 147.066 24.543, 146.093 24.075, 144.228 21.859 C 141.963 19.167, 137.094 15.724, 138.291 17.661 C 138.961 18.746, 137.079 21.325, 134.626 22.682 C 132.877 23.649, 132.990 23.983, 136.290 27.636 C 139.046 30.687, 139.616 31.935, 138.865 33.277 C 137.818 35.148, 133.505 35.627, 132.490 33.984 C 132.144 33.425, 131.508 33.186, 131.076 33.453 C 130.644 33.720, 129.213 32.755, 127.895 31.308 C 126.578 29.861, 126.132 29.045, 126.905 29.493 C 127.857 30.046, 128.076 29.932, 127.585 29.138 C 127.187 28.494, 126.444 28.226, 125.933 28.542 C 124.666 29.324, 120.826 26.527, 121.756 25.500 C 122.165 25.049, 121.933 25.006, 121.241 25.404 C 119.806 26.230, 115.757 25.208, 116.382 24.178 C 116.608 23.805, 114.216 23.375, 111.066 23.223 C 106.714 23.012, 104.758 23.391, 102.920 24.803 C 99.886 27.133, 91.568 29.469, 89.924 28.453 C 89.184 27.996, 88.946 28.104, 89.329 28.723 C 89.680 29.291, 88.062 31.035, 85.734 32.599 C 83.405 34.163, 81.093 35.455, 80.595 35.471 C 80.098 35.487, 79.572 36.310, 79.427 37.300 C 79.056 39.826, 76.973 42.101, 75.732 41.334 C 75.140 40.968, 74.989 41.173, 75.381 41.808 C 75.761 42.422, 74.976 45.087, 73.637 47.729 C 72.298 50.372, 70.686 54.452, 70.055 56.797 C 69.335 59.471, 68.494 60.805, 67.799 60.376 C 67.137 59.967, 66.973 60.147, 67.390 60.822 C 67.774 61.444, 67.394 66.634, 66.545 72.355 C 65.695 78.076, 64.993 87.199, 64.985 92.628 C 64.976 98.527, 64.623 101.954, 64.110 101.143 C 62.976 99.353, 61.779 101.261, 62.636 103.494 C 63.148 104.828, 63.450 104.897, 64.124 103.834 C 64.650 103.004, 64.969 104.391, 64.969 107.500 L 64.969 112.500 59.819 115 C 56.987 116.375, 51.310 119.402, 47.203 121.728 C 43.097 124.053, 39.335 125.707, 38.844 125.403 C 38.352 125.100, 38.074 125.270, 38.225 125.782 C 38.504 126.726, 27.919 135.627, 27 135.221 C 26.725 135.099, 26.461 135.338, 26.414 135.750 C 26.216 137.467, 24.744 139.960, 24.145 139.590 C 23.790 139.371, 23.441 140.161, 23.368 141.346 C 23.296 142.531, 22.474 148.675, 21.541 155 C 19.129 171.353, 20.347 179.889, 27.318 195.500 C 29.841 201.150, 31.452 206.361, 31.646 209.500 C 31.864 213.044, 31.724 213.772, 31.163 212 C 30.443 209.724, 30.310 209.880, 29.674 213.750 C 29.217 216.533, 28.463 218, 27.488 218 C 25.175 218, 25.734 219.558, 28.500 220.818 C 30.856 221.891, 31 221.789, 31 219.038 C 31 217.432, 31.443 215.844, 31.985 215.509 C 32.905 214.941, 32.751 217.138, 31.405 223.791 C 31.150 225.051, 30.552 225.841, 30.075 225.547 C 29.599 225.252, 28.943 225.707, 28.616 226.558 C 28.267 227.468, 28.442 227.845, 29.041 227.474 C 29.667 227.088, 30.043 228.320, 30.017 230.673 C 29.855 245.212, 30.094 248.099, 31.505 248.640 C 32.605 249.062, 32.713 249.667, 31.947 251.100 C 30.996 252.877, 31.354 253, 37.465 253 C 41.059 253, 44 252.562, 44 252.026 C 44 250.158, 49.549 248.258, 56.500 247.746 C 60.529 247.449, 65.622 246.287, 68.500 245.009 C 75.190 242.037, 84.413 241.290, 89 243.347 C 92.401 244.873, 92.415 244.902, 89.500 244.378 C 87.263 243.975, 86.874 244.099, 87.972 244.865 C 89.220 245.736, 89.144 246.004, 87.472 246.623 C 86.387 247.025, 85.179 247.837, 84.786 248.427 C 84.394 249.017, 83.719 249.503, 83.286 249.507 C 82.854 249.511, 81.387 250.299, 80.027 251.257 L 77.555 253 79.837 253 C 81.091 253, 81.859 252.581, 81.543 252.069 C 81.226 251.557, 81.394 250.875, 81.915 250.553 C 82.436 250.231, 83.149 250.432, 83.500 251 C 83.851 251.568, 84.557 251.774, 85.069 251.457 C 85.581 251.141, 86 251.359, 86 251.941 C 86 252.523, 86.355 253, 86.789 253 C 87.224 253, 87.561 251.762, 87.539 250.250 C 87.504 247.764, 87.819 247.515, 90.821 247.655 C 93.388 247.775, 94.011 247.472, 93.569 246.320 C 93.255 245.501, 94.798 246.256, 96.999 247.999 C 99.199 249.742, 101 251.382, 101 251.643 C 101 251.904, 100.480 251.797, 99.845 251.405 C 99.211 251.012, 98.951 251.112, 99.269 251.627 C 99.588 252.142, 101.157 252.663, 102.757 252.785 C 104.742 252.936, 105.667 252.543, 105.667 251.547 C 105.667 250.745, 105.361 250.277, 104.986 250.508 C 104.612 250.740, 103 249.489, 101.403 247.730 C 99.806 245.971, 99.466 245.339, 100.646 246.327 C 102.749 248.086, 102.823 248.060, 104.320 245.061 C 105.754 242.187, 105.731 242, 103.955 242 C 102.684 242, 102.252 242.492, 102.638 243.500 C 103.575 245.940, 101.584 245.219, 98.500 242 C 95.656 239.032, 93 238.066, 93 240 C 93 240.550, 93.675 241, 94.500 241 C 95.325 241, 96 241.472, 96 242.050 C 96 242.730, 95.421 242.776, 94.357 242.180 C 93.047 241.447, 92.718 239.664, 92.734 233.380 C 92.745 229.046, 93.086 222.913, 93.492 219.751 C 94.364 212.963, 92.844 201.316, 89.414 188.500 C 88.089 183.550, 87.004 177.351, 87.003 174.724 L 87 169.949 90.171 171.588 C 92.628 172.859, 95.317 173.134, 102.114 172.809 L 110.885 172.390 112.013 179.445 C 112.633 183.325, 113.825 188.654, 114.663 191.287 C 115.500 193.920, 115.924 196.756, 115.604 197.589 C 115.227 198.571, 115.431 198.852, 116.181 198.388 C 116.982 197.893, 117.117 198.254, 116.617 199.555 C 116.220 200.591, 116.217 201.116, 116.612 200.722 C 117.476 199.857, 122.039 207.127, 121.341 208.257 C 121.072 208.693, 121.231 208.926, 121.695 208.775 C 122.953 208.365, 128.042 212.624, 127.247 213.420 C 126.869 213.797, 127.409 213.780, 128.445 213.383 C 129.746 212.883, 130.107 213.018, 129.612 213.819 C 129.170 214.534, 129.405 214.782, 130.227 214.466 C 132.680 213.525, 134.754 216.443, 137.354 224.500 C 141.249 236.564, 142.071 241.296, 141.140 246.282 C 140.393 250.280, 140.490 250.685, 142.097 250.264 C 143.933 249.784, 144.337 248.504, 145.659 239 L 146.423 233.500 147.211 241 C 148.271 251.079, 148.190 250.725, 149.417 250.704 C 150.012 250.693, 152.525 250.855, 155 251.064 C 157.475 251.272, 149.375 251.693, 137 252 C 115.166 252.541, 115.538 252.564, 149.583 252.779 C 179.732 252.969, 184.667 252.795, 184.667 251.544 C 184.667 250.743, 184.301 250.314, 183.854 250.590 C 182.531 251.408, 178.884 248.997, 179.627 247.795 C 180.025 247.151, 179.853 246.973, 179.214 247.368 C 177.710 248.297, 170.903 242.145, 171.233 240.154 C 171.380 239.269, 170.870 238.535, 170.101 238.522 C 169.331 238.510, 168.350 237.600, 167.921 236.500 C 166.895 233.870, 166.824 232.175, 167.806 233.720 C 168.296 234.492, 169.058 233.326, 169.878 230.549 C 171.099 226.412, 171.460 226.089, 176.099 224.976 C 178.807 224.327, 181.792 224.090, 182.731 224.450 C 183.670 224.811, 184.122 224.789, 183.735 224.402 C 183.348 224.015, 183.799 223.136, 184.738 222.450 C 186.200 221.381, 186.703 221.626, 188.244 224.161 C 189.234 225.789, 189.739 227.613, 189.367 228.215 C 188.984 228.835, 189.149 229.026, 189.748 228.656 C 191.076 227.835, 195 234.347, 195 237.372 C 195 238.982, 193.925 240.164, 191.250 241.495 C 189.188 242.521, 187.240 243.305, 186.922 243.237 C 186.604 243.170, 186.397 244.713, 186.462 246.667 C 186.635 251.902, 188.999 253.201, 197.500 252.736 C 201.350 252.526, 205.995 251.713, 207.822 250.930 C 210.793 249.657, 211.242 249.681, 212.066 251.153 C 212.648 252.194, 214.278 252.800, 216.494 252.800 C 218.422 252.800, 220 252.598, 220 252.350 C 220 252.103, 219.343 250.630, 218.540 249.077 C 217.737 247.524, 217.399 245.934, 217.790 245.543 C 218.180 245.153, 218.050 244.949, 217.500 245.091 C 216.950 245.233, 215.266 244.750, 213.758 244.018 C 211.636 242.987, 211.266 242.385, 212.121 241.354 C 212.729 240.621, 213.565 240.231, 213.980 240.487 C 214.394 240.743, 215.538 240.063, 216.521 238.976 C 217.505 237.889, 217.927 237, 217.459 237 C 216.991 237, 218.117 235.443, 219.962 233.539 C 221.807 231.635, 223.602 230.254, 223.951 230.470 C 224.300 230.685, 224.648 230.023, 224.725 228.997 C 224.874 227.027, 223.664 225.726, 220.698 224.667 C 219.527 224.248, 219.133 224.406, 219.573 225.119 C 220.021 225.843, 219.559 225.995, 218.209 225.566 C 217.039 225.195, 215.853 225.429, 215.430 226.114 C 214.924 226.932, 215.134 227.054, 216.095 226.500 C 216.868 226.055, 216.194 227.094, 214.597 228.810 C 213 230.525, 211.243 231.650, 210.692 231.310 C 210.142 230.970, 209.981 231.160, 210.334 231.732 C 211.119 233.002, 208.614 235.280, 207.575 234.241 C 207.167 233.834, 206.983 234.155, 207.167 234.955 C 207.350 235.755, 206.868 236.430, 206.095 236.455 C 205.323 236.480, 204.565 237.354, 204.412 238.397 C 204.259 239.441, 203.429 241, 202.567 241.862 C 201.144 243.284, 201 243.280, 201 241.814 C 201 240.926, 199.200 236.286, 197.001 231.502 C 194.802 226.719, 193.299 222.287, 193.661 221.653 C 194.024 221.019, 193.964 220.822, 193.529 221.215 C 193.093 221.608, 191.867 221.464, 190.804 220.895 C 189.291 220.085, 189.122 219.559, 190.024 218.471 C 191.454 216.748, 190.477 211.642, 187.905 207.403 C 186.872 205.700, 186.358 203.941, 186.763 203.493 C 187.168 203.046, 187.004 202.962, 186.397 203.308 C 185.748 203.678, 184.205 201.714, 182.652 198.543 C 180.209 193.552, 180.056 192.489, 180.614 184.324 C 181.068 177.667, 180.834 174.395, 179.660 171 C 178.376 167.288, 178.357 166.840, 179.552 168.441 C 180.592 169.835, 181 169.973, 181 168.932 C 181 168.134, 181.850 166.950, 182.888 166.302 C 183.927 165.653, 185.690 163.840, 186.806 162.273 L 188.835 159.423 186.296 159.212 C 184.145 159.034, 183.947 159.231, 185.001 160.501 C 186 161.705, 185.983 162, 184.915 162 C 184.183 162, 181.878 160.334, 179.792 158.297 L 176 154.594 176.079 157.547 C 176.122 159.171, 176.386 159.935, 176.664 159.244 C 176.943 158.553, 177.604 158.255, 178.134 158.583 C 178.730 158.951, 178.665 159.699, 177.962 160.545 C 176.280 162.572, 177.829 164.260, 180.707 163.537 C 182.490 163.090, 183.075 163.279, 182.771 164.206 C 182.537 164.918, 181.186 165.638, 179.769 165.807 C 177.616 166.064, 177.026 165.571, 176.177 162.807 C 175.619 160.988, 174.861 152.075, 174.493 143 C 173.566 120.163, 173.565 120.151, 172.961 120.524 C 172.227 120.978, 167.508 110.752, 167.874 109.500 C 168.035 108.950, 167.845 108.822, 167.452 109.215 C 166.371 110.295, 162.843 108.064, 163.627 106.795 C 164.005 106.183, 163.857 105.971, 163.292 106.319 C 162.733 106.665, 160.409 106.214, 158.128 105.318 C 154.848 104.030, 153.458 103.926, 151.490 104.823 L 149 105.957 148.981 94.729 C 148.957 80.955, 146.958 66.484, 143.976 58.500 C 142.743 55.200, 140.235 50.025, 138.402 47 C 136.569 43.975, 135.182 40.789, 135.319 39.919 C 135.540 38.516, 148.830 23.975, 154.750 18.660 C 155.988 17.548, 157 16.238, 157 15.748 C 157 15.258, 156.293 15.564, 155.429 16.429 C 154.564 17.293, 153.284 18, 152.584 18 C 151.883 18, 150.472 17.074, 149.447 15.941 C 148.019 14.363, 147.833 13.488, 148.651 12.191 C 149.825 10.330, 155.686 9.684, 156.688 11.305 C 157.030 11.857, 156.850 12.025, 156.288 11.678 C 155.727 11.331, 154.460 11.939, 153.473 13.030 C 151.429 15.288, 152.035 16.822, 154.140 14.717 C 154.898 13.959, 156.076 13.525, 156.759 13.753 C 157.886 14.129, 158.462 12.803, 158.095 10.679 C 158.017 10.228, 158.976 8.969, 160.226 7.881 L 162.500 5.904 159.209 6.540 C 157.198 6.929, 155.350 6.706, 154.459 5.966 C 153.256 4.968, 153 5.138, 153 6.937 M 235.624 6.709 C 235.281 7.053, 235 8.083, 235 8.999 C 235 10.681, 227.384 18, 225.634 18 C 223.843 18, 218.257 22.909, 217.723 24.952 C 217.428 26.079, 217.546 27, 217.985 27 C 218.424 27, 219.066 25.875, 219.411 24.500 C 219.835 22.809, 220.730 22, 222.174 22 C 224.279 22, 224.283 22.030, 222.413 24.096 C 220.519 26.189, 220.522 26.192, 223.880 25.846 C 226.223 25.605, 227.573 26.013, 228.330 27.191 C 229.173 28.504, 228.977 29.381, 227.458 31.108 L 225.500 33.333 228.582 31.550 C 230.277 30.569, 232.218 28.880, 232.895 27.796 C 233.970 26.075, 233.896 25.898, 232.313 26.400 C 231.129 26.776, 229.373 25.921, 227.250 23.937 C 223.803 20.715, 222.947 18.382, 225.582 19.393 C 226.452 19.727, 227.603 20, 228.141 20 C 228.678 20, 228.871 20.399, 228.570 20.887 C 227.895 21.978, 229.728 23.518, 232.837 24.473 C 234.543 24.996, 235.691 24.635, 237.087 23.137 C 238.139 22.008, 239 20.540, 239 19.875 C 239 19.210, 239.266 18.933, 239.592 19.259 C 240.376 20.043, 249 12.607, 249 11.147 C 249 10.756, 247.820 10.339, 246.379 10.219 C 244.226 10.041, 243.966 10.254, 244.927 11.412 C 245.571 12.188, 245.719 13.055, 245.258 13.341 C 244.796 13.626, 242.580 12.110, 240.333 9.973 C 238.086 7.835, 235.967 6.366, 235.624 6.709 M 236.093 10.388 C 235.222 11.438, 235.236 12.424, 236.153 14.437 C 237.068 16.445, 237.976 17.024, 239.856 16.799 C 241.225 16.634, 242.531 15.936, 242.757 15.247 C 243.022 14.442, 242.335 14.084, 240.834 14.247 C 238.856 14.461, 238.529 14.081, 238.688 11.750 C 238.894 8.746, 237.892 8.220, 236.093 10.388 M 60.004 11.495 C 59.003 12.701, 59.089 13.486, 60.445 15.556 C 62.564 18.791, 66.347 18.577, 66.827 15.195 C 67.452 10.787, 62.721 8.222, 60.004 11.495 M 61.756 12.577 C 60.744 13.590, 62.098 16, 63.680 16 C 64.512 16, 65.007 15.278, 64.823 14.333 C 64.476 12.543, 62.768 11.565, 61.756 12.577 M 150 13.059 C 150 13.641, 150.450 13.840, 151 13.500 C 151.550 13.160, 152 12.684, 152 12.441 C 152 12.198, 151.550 12, 151 12 C 150.450 12, 150 12.477, 150 13.059 M 230.667 15.667 C 229.580 16.753, 229.906 20.506, 231.200 21.800 C 232.842 23.442, 235.501 23.307, 236.996 21.505 C 237.996 20.300, 237.918 19.524, 236.595 17.505 C 235.037 15.127, 232.113 14.220, 230.667 15.667 M 232 18.441 C 232 20.233, 233.652 21.333, 235.049 20.470 C 235.765 20.027, 235.727 19.376, 234.926 18.411 C 233.415 16.590, 232 16.605, 232 18.441 M 145.232 20 C 145.919 21.100, 146.823 22, 147.241 22 C 147.658 22, 148 21.100, 148 20 C 148 18.664, 147.333 18, 145.992 18 C 144.233 18, 144.139 18.249, 145.232 20 M 47.022 22.183 C 47.007 23.975, 46.336 25.076, 44.999 25.500 C 43.898 25.850, 42.533 27.005, 41.964 28.068 C 41.395 29.130, 40.120 30, 39.131 30 C 36.797 30, 36.005 30.849, 36.686 32.623 C 37.096 33.693, 37.569 33.773, 38.569 32.943 C 40.446 31.385, 43.498 32.603, 44.783 35.423 C 45.676 37.383, 45.529 38.116, 43.956 39.540 C 42.123 41.199, 41.870 41.115, 37.925 37.551 L 33.807 33.831 32.199 36.165 C 31.315 37.449, 29.945 38.991, 29.154 39.590 C 27.957 40.498, 28.335 41.365, 31.418 44.778 L 35.120 48.875 32.627 50.509 C 30.622 51.822, 29.707 51.913, 27.952 50.974 C 26.160 50.015, 25.869 49.198, 26.322 46.403 C 26.736 43.855, 26.513 43, 25.437 43 C 24.647 43, 24 43.690, 24 44.532 C 24 45.375, 23.001 46.434, 21.779 46.886 C 19.745 47.639, 20.004 47.962, 24.868 50.740 C 27.788 52.408, 29.728 54.050, 29.179 54.389 C 28.630 54.729, 27.510 54.749, 26.691 54.435 C 24.694 53.669, 23.656 55.563, 24.879 57.742 C 25.783 59.353, 25.919 59.362, 26.505 57.842 C 26.856 56.929, 28.461 55.637, 30.072 54.970 C 31.682 54.303, 33 53.377, 33 52.912 C 33 52.448, 36.712 48.306, 41.250 43.708 C 48.858 35.998, 54.621 29.523, 51.002 32.750 C 50.231 33.438, 48.620 34, 47.422 34 C 43.094 34, 41.579 28.924, 45.222 26.630 C 46.493 25.830, 47.274 25.874, 48.197 26.797 C 49.193 27.793, 49.197 28.455, 48.216 30.025 C 47.538 31.111, 47.410 32, 47.933 32 C 48.455 32, 49.165 31.543, 49.510 30.984 C 49.856 30.425, 50.535 30.212, 51.019 30.512 C 51.503 30.811, 52.388 30.143, 52.985 29.028 C 53.582 27.913, 53.760 27, 53.380 27 C 53.001 27, 53.547 26.033, 54.595 24.850 L 56.500 22.701 53.555 23.418 C 51.162 24.001, 50.277 23.702, 48.828 21.818 L 47.044 19.500 47.022 22.183 M 138.163 21.878 C 136.102 23.185, 137.210 27.304, 140 28.707 C 142.127 29.777, 142.687 29.715, 143.750 28.291 C 144.438 27.371, 145 26.254, 145 25.809 C 145 24.782, 141.248 20.995, 140.250 21.015 C 139.838 21.024, 138.898 21.412, 138.163 21.878 M 139.476 24.039 C 139.090 24.663, 139.275 25.675, 139.887 26.287 C 140.659 27.059, 141.319 27.081, 142.042 26.358 C 142.766 25.634, 142.640 24.946, 141.631 24.109 C 140.557 23.218, 139.995 23.199, 139.476 24.039 M 99.333 25.667 C 99.700 26.033, 100.300 26.033, 100.667 25.667 C 101.033 25.300, 100.733 25, 100 25 C 99.267 25, 98.967 25.300, 99.333 25.667 M 129.198 27.863 C 128.399 30.154, 128.459 31.136, 129.445 31.955 C 130.451 32.789, 130.888 32.310, 131.384 29.829 C 132.244 25.532, 130.543 24.003, 129.198 27.863 M 105.985 27.639 C 105.972 29.206, 105.816 29.263, 105 28 C 104.155 26.692, 104.029 26.707, 104.015 28.114 C 104.004 29.258, 102.727 29.903, 99.627 30.327 C 94.415 31.042, 89.858 32.961, 90.583 34.135 C 90.870 34.598, 90.505 34.747, 89.772 34.466 C 88.065 33.811, 80.619 40.574, 81.491 41.986 C 81.853 42.571, 81.553 42.926, 80.824 42.775 C 80.092 42.623, 79.561 43.277, 79.637 44.239 C 79.712 45.196, 79.441 45.772, 79.033 45.521 C 77.971 44.864, 75.844 49.939, 76.642 51.229 C 77.021 51.843, 76.845 52.022, 76.235 51.645 C 74.847 50.787, 72.740 57.066, 73.567 59.597 C 74.022 60.989, 73.930 61.139, 73.227 60.155 C 72.482 59.114, 72.128 59.352, 71.663 61.206 C 70.452 66.033, 68.002 84.094, 68.063 87.743 C 68.121 91.161, 68.213 91.284, 69.085 89.105 C 69.612 87.788, 69.760 85.819, 69.414 84.730 C 69.036 83.537, 69.180 82.993, 69.777 83.362 C 71.073 84.163, 73.417 78.484, 72.442 76.906 C 72.002 76.194, 72.109 75.949, 72.699 76.314 C 73.974 77.102, 76.256 72.253, 75.352 70.675 C 74.982 70.029, 75.055 69.841, 75.514 70.258 C 76.565 71.212, 80.099 65.969, 79.289 64.658 C 78.960 64.126, 79.188 63.998, 79.795 64.373 C 81.084 65.170, 83.272 61.642, 82.215 60.471 C 81.822 60.036, 82.139 60.050, 82.920 60.504 C 83.987 61.123, 84.176 60.901, 83.681 59.612 C 83.238 58.456, 83.401 58.130, 84.181 58.612 C 84.982 59.107, 85.117 58.746, 84.617 57.445 C 84.220 56.409, 84.216 55.882, 84.608 56.275 C 85.349 57.016, 90.451 50.263, 90.482 48.500 C 90.492 47.950, 91.175 47.480, 92 47.455 C 92.825 47.430, 93.376 46.834, 93.225 46.130 C 93.074 45.427, 93.336 45.090, 93.808 45.381 C 94.280 45.673, 96.335 44.777, 98.376 43.391 C 100.416 42.004, 102.854 41.016, 103.793 41.195 C 106.337 41.680, 106.498 45.841, 104.073 48.422 C 102.923 49.647, 102.323 50.990, 102.741 51.408 C 103.158 51.825, 102.825 52.017, 102 51.833 C 101.091 51.631, 100.631 52.091, 100.833 53 C 101.017 53.825, 100.845 54.178, 100.452 53.785 C 99.371 52.705, 95.843 54.936, 96.627 56.205 C 97.032 56.861, 96.852 57.027, 96.183 56.613 C 94.654 55.668, 89.853 58.931, 90.669 60.359 C 91.027 60.987, 90.948 61.162, 90.491 60.748 C 89.146 59.528, 86.064 63.034, 85.075 66.909 C 84.571 68.884, 83.859 73.270, 83.492 76.655 C 82.878 82.329, 82.990 82.862, 84.927 83.477 C 86.083 83.844, 86.783 84.542, 86.482 85.028 C 86.182 85.515, 85.197 85.629, 84.294 85.283 C 83.038 84.801, 82.811 85.065, 83.326 86.408 C 83.697 87.374, 84 88.386, 84 88.659 C 84 89.753, 89.441 82.601, 89.640 81.245 C 89.983 78.908, 88.961 77.123, 86.908 76.471 C 84.600 75.738, 84.298 71.207, 86.500 70.362 C 87.325 70.045, 88 69.064, 88 68.181 C 88 67.146, 89.746 68.295, 92.914 71.415 L 97.828 76.255 95.164 78.772 L 92.500 81.288 95.042 80.677 C 96.440 80.341, 100.185 79.761, 103.364 79.387 C 107.315 78.923, 108.726 78.417, 107.822 77.788 C 106.918 77.160, 107.188 77.062, 108.677 77.479 C 111.550 78.283, 117.325 75.802, 119.369 72.883 C 120.266 71.603, 121 68.937, 121 66.959 C 121 62.155, 118.156 52.786, 116.928 53.545 C 116.390 53.877, 116.015 53.778, 116.094 53.324 C 116.423 51.431, 115.943 49.917, 115.167 50.397 C 114.708 50.680, 114.333 50.319, 114.333 49.594 C 114.333 47.496, 109.922 40.930, 108.926 41.546 C 108.429 41.853, 108.319 41.332, 108.681 40.388 C 109.164 39.132, 108.985 38.891, 108.015 39.490 C 107.182 40.005, 106.931 39.920, 107.339 39.261 C 107.695 38.684, 107.282 36.526, 106.421 34.465 C 105.050 31.183, 105.036 30.535, 106.311 29.261 C 107.413 28.158, 108.249 28.063, 109.752 28.867 C 110.844 29.452, 112.059 29.608, 112.452 29.215 C 112.845 28.822, 113.037 28.950, 112.878 29.500 C 112.719 30.050, 113.293 31.850, 114.155 33.500 C 115.016 35.150, 116.992 40.451, 118.546 45.279 C 120.100 50.108, 122.751 56.858, 124.436 60.279 C 127.493 66.487, 127.511 66.501, 132.500 67.038 C 135.250 67.334, 138.453 68.106, 139.619 68.753 C 140.784 69.400, 141.925 69.742, 142.154 69.512 C 142.838 68.829, 143.228 73.030, 143.220 81 C 143.215 85.361, 142.367 91.639, 141.192 96 C 138.282 106.798, 138.301 106.712, 139.391 104.250 C 139.938 103.013, 141.023 102, 141.801 102 C 142.808 102, 143.037 102.715, 142.596 104.473 C 142.109 106.413, 142.302 106.821, 143.488 106.366 C 144.427 106.006, 145 106.360, 145 107.299 C 145 108.286, 144.348 108.642, 143.129 108.324 C 141.740 107.960, 141.085 108.524, 140.586 110.513 C 140.216 111.986, 140.364 113.734, 140.915 114.398 C 141.466 115.061, 141.615 116.706, 141.247 118.052 C 140.585 120.470, 140.569 120.463, 139.907 117.500 C 139.523 115.784, 139.186 119.273, 139.118 125.651 C 139.046 132.492, 139.809 142.153, 141.094 150.651 C 142.688 161.197, 143.010 166.408, 142.444 172.500 C 142.035 176.900, 141.690 181.975, 141.677 183.778 C 141.663 185.581, 141.358 186.579, 140.999 185.998 C 140.353 184.953, 137.811 192.952, 136.465 200.264 C 135.831 203.710, 136.120 204.407, 139.886 208.492 C 142.745 211.594, 144.004 212.428, 144.014 211.228 C 144.021 210.277, 144.268 208.375, 144.562 207 C 145.047 204.731, 144.976 204.762, 143.788 207.344 C 142.497 210.151, 142.457 210.162, 140.700 208.221 C 138.987 206.328, 138.997 206.234, 140.955 205.722 C 142.074 205.429, 143.292 204.402, 143.662 203.439 C 144.131 202.217, 143.398 200.852, 141.240 198.923 C 139.007 196.928, 138.300 195.568, 138.700 194.038 C 139.438 191.216, 141.421 191.992, 141.809 195.254 C 141.980 196.684, 142.826 198.440, 143.689 199.157 C 145.083 200.314, 145.176 200.080, 144.518 197.080 C 143.875 194.154, 144.003 193.787, 145.471 194.351 C 146.588 194.779, 147.019 194.574, 146.732 193.751 C 146.493 193.063, 145.331 192.536, 144.149 192.579 C 141.863 192.664, 141.445 191.425, 142.954 189.040 C 143.742 187.795, 144.203 187.869, 146.084 189.540 L 148.291 191.500 147.629 184.500 C 147.265 180.650, 146.650 174.800, 146.262 171.500 L 145.557 165.500 144.881 169.500 C 144.510 171.700, 144.462 169, 144.776 163.500 C 145.090 158, 145.381 136.400, 145.423 115.500 C 145.490 82.506, 145.263 76.403, 143.704 69.176 C 141.505 58.978, 137.533 49.553, 135.868 50.581 C 135.138 51.033, 134.957 50.878, 135.392 50.175 C 136.286 48.728, 134.209 44.753, 132.961 45.524 C 132.445 45.843, 132.253 45.505, 132.534 44.773 C 132.814 44.041, 132.358 42.556, 131.520 41.471 C 130.274 39.861, 130.107 39.821, 130.605 41.250 C 130.940 42.212, 130.778 43, 130.244 43 C 129.711 43, 129.311 41.763, 129.355 40.250 C 129.401 38.716, 128.940 37.597, 128.313 37.718 C 127.695 37.838, 126.927 37.253, 126.606 36.416 C 126.215 35.397, 126.431 35.134, 127.261 35.620 C 127.943 36.018, 127.633 35.356, 126.574 34.148 C 123.764 30.946, 122.760 33.479, 125.199 37.613 C 126.288 39.458, 127.006 41.481, 126.797 42.110 C 126.587 42.739, 125.242 40.992, 123.808 38.227 C 122.056 34.851, 121.531 32.869, 122.207 32.193 C 123.642 30.758, 119.490 28.731, 116.712 29.510 C 115.130 29.954, 114.893 29.859, 115.882 29.175 C 117.003 28.399, 116.909 28.114, 115.382 27.663 C 114.347 27.357, 111.813 26.808, 109.750 26.442 C 106.525 25.870, 105.998 26.038, 105.985 27.639 M 218 29.050 C 218 29.453, 216.988 30.058, 215.750 30.395 C 213.204 31.087, 207 36.454, 207 37.964 C 207 38.585, 207.925 38.536, 209.470 37.832 C 211.359 36.971, 212.301 37.005, 213.470 37.975 C 215.444 39.613, 215.435 43.394, 213.453 45.039 C 212.141 46.128, 211.205 45.652, 207.308 41.912 C 204.780 39.485, 203.004 38.025, 203.363 38.666 C 203.721 39.307, 202.645 41.201, 200.972 42.874 L 197.930 45.916 201.452 49.815 C 204.825 53.549, 204.897 53.783, 203.158 55.357 C 202.160 56.261, 200.885 57, 200.326 57 C 199.767 57, 198.543 56.153, 197.606 55.118 C 196.472 53.864, 196.113 52.397, 196.532 50.727 C 197.333 47.538, 195.404 46.206, 194.374 49.235 C 193.950 50.481, 193.688 51.821, 193.790 52.214 C 193.892 52.607, 193.306 52.671, 192.488 52.357 C 191.670 52.043, 191 52.194, 191 52.694 C 191 53.193, 193.048 54.597, 195.552 55.813 C 198.055 57.029, 199.817 58.487, 199.467 59.053 C 199.118 59.618, 198.007 59.820, 197 59.500 C 194.854 58.819, 193.741 60.160, 194.598 62.394 C 195.091 63.681, 196.051 63.286, 199.851 60.234 C 202.408 58.180, 204.839 55.974, 205.254 55.331 C 205.669 54.688, 209.607 50.569, 214.004 46.177 C 218.402 41.786, 222 37.834, 222 37.396 C 222 36.958, 221.460 37.140, 220.800 37.800 C 220.140 38.460, 218.555 39, 217.279 39 C 214.248 39, 212.099 34.790, 213.975 32.530 C 215.421 30.788, 216.855 30.623, 218.960 31.954 C 220.210 32.745, 220.152 33.175, 218.555 34.939 C 217.529 36.073, 217.183 37, 217.786 37 C 218.389 37, 219.148 36.570, 219.473 36.044 C 219.798 35.518, 220.725 35.341, 221.532 35.651 C 222.427 35.994, 223.049 35.587, 223.125 34.607 C 223.375 31.394, 223.533 31.062, 225.492 29.630 C 227.335 28.282, 227.131 28.179, 222.742 28.245 C 220.134 28.285, 218 28.647, 218 29.050 M 45.333 29.667 C 45.700 30.033, 46.300 30.033, 46.667 29.667 C 47.033 29.300, 46.733 29, 46 29 C 45.267 29, 44.967 29.300, 45.333 29.667 M 133 30.531 C 133 32.143, 135.662 33.672, 136.686 32.648 C 137.398 31.935, 135.138 29, 133.878 29 C 133.395 29, 133 29.689, 133 30.531 M 219.500 30 C 219.840 30.550, 220.343 31, 220.618 31 C 220.893 31, 220.840 30.550, 220.500 30 C 220.160 29.450, 219.657 29, 219.382 29 C 219.107 29, 219.160 29.450, 219.500 30 M 109 32.898 C 109 33.392, 110.155 35.754, 111.567 38.148 C 113.114 40.770, 113.859 41.506, 113.441 40 C 112.603 36.981, 110.133 32, 109.474 32 C 109.213 32, 109 32.404, 109 32.898 M 39.570 34.887 C 38.917 35.944, 41.783 38.550, 42.648 37.686 C 43.481 36.852, 42.276 34, 41.090 34 C 40.556 34, 39.871 34.399, 39.570 34.887 M 215.333 34.667 C 215.700 35.033, 216.300 35.033, 216.667 34.667 C 217.033 34.300, 216.733 34, 216 34 C 215.267 34, 214.967 34.300, 215.333 34.667 M 132.661 37.606 C 133.524 38.923, 134.307 40, 134.401 40 C 134.495 40, 134.571 39.127, 134.571 38.061 C 134.571 36.994, 133.789 35.916, 132.832 35.666 C 131.222 35.245, 131.209 35.389, 132.661 37.606 M 31.477 40.072 C 30.695 42.537, 33.416 46, 36.136 46 C 38.440 46, 39.705 41.554, 37.989 39.487 C 36.147 37.267, 32.257 37.616, 31.477 40.072 M 102.333 39.667 C 102.700 40.033, 103.300 40.033, 103.667 39.667 C 104.033 39.300, 103.733 39, 103 39 C 102.267 39, 101.967 39.300, 102.333 39.667 M 209.570 39.887 C 208.917 40.944, 211.783 43.550, 212.648 42.686 C 213.481 41.852, 212.276 39, 211.090 39 C 210.556 39, 209.871 39.399, 209.570 39.887 M 33.570 40.887 C 32.917 41.944, 35.783 44.550, 36.648 43.686 C 37.481 42.852, 36.276 40, 35.090 40 C 34.556 40, 33.871 40.399, 33.570 40.887 M 202.667 43.667 C 201.478 44.855, 201.961 48.723, 203.452 49.960 C 205.308 51.500, 207.985 50.977, 209.351 48.809 C 210.167 47.513, 209.980 46.635, 208.553 45.059 C 206.712 43.024, 203.960 42.373, 202.667 43.667 M 101.419 45.351 C 101.073 46.252, 100.453 46.780, 100.040 46.525 C 99.117 45.954, 91 52.779, 91 54.126 C 91 55.297, 98.731 50.087, 101.411 47.110 C 102.461 45.943, 103.034 44.701, 102.684 44.351 C 102.334 44, 101.764 44.451, 101.419 45.351 M 204 46.441 C 204 48.184, 205.640 49.341, 206.956 48.527 C 208.287 47.704, 207.089 45, 205.393 45 C 204.627 45, 204 45.648, 204 46.441 M 28 47.500 C 28 48.362, 28.902 49, 30.122 49 C 31.896 49, 32.040 48.753, 31 47.500 C 30.315 46.675, 29.360 46, 28.878 46 C 28.395 46, 28 46.675, 28 47.500 M 96.500 49.588 L 93.500 52.165 96.750 50.015 C 98.537 48.832, 100 47.669, 100 47.432 C 100 46.683, 99.577 46.944, 96.500 49.588 M 17.632 52.693 C 17.894 53.687, 18.982 55.625, 20.050 57 L 21.993 59.500 20.919 56.308 C 19.718 52.740, 16.802 49.532, 17.632 52.693 M 21 51.882 C 21 52.432, 21.450 53.160, 22 53.500 C 22.550 53.840, 23 53.668, 23 53.118 C 23 52.568, 22.550 51.840, 22 51.500 C 21.450 51.160, 21 51.332, 21 51.882 M 198 52.393 C 198 54.163, 200.721 55.261, 201.596 53.845 C 201.959 53.257, 201.636 52.384, 200.878 51.904 C 198.896 50.648, 198 50.800, 198 52.393 M 188.333 53.667 C 188.700 54.033, 189.300 54.033, 189.667 53.667 C 190.033 53.300, 189.733 53, 189 53 C 188.267 53, 187.967 53.300, 188.333 53.667 M 187.393 56.582 C 187.727 57.452, 188 58.508, 188 58.929 C 188 59.350, 188.900 60.732, 190 62 C 191.100 63.268, 192 63.994, 192 63.613 C 192 62.448, 187.998 55, 187.373 55 C 187.050 55, 187.059 55.712, 187.393 56.582 M 191.606 57.416 C 191.941 58.287, 192.653 59, 193.190 59 C 194.505 59, 193.682 56.727, 192.187 56.229 C 191.456 55.985, 191.233 56.443, 191.606 57.416 M 91.627 66.368 C 92.657 67.781, 93.838 68.951, 94.250 68.969 C 94.662 68.986, 95 68.025, 95 66.833 C 95 65.642, 94.716 64.951, 94.369 65.298 C 94.021 65.645, 92.841 65.450, 91.746 64.864 C 89.781 63.812, 89.779 63.832, 91.627 66.368 M 127.500 65 C 127.840 65.550, 128.343 66, 128.618 66 C 128.893 66, 128.840 65.550, 128.500 65 C 128.160 64.450, 127.657 64, 127.382 64 C 127.107 64, 127.160 64.450, 127.500 65 M 86 66 C 86 66.733, 86.300 67.033, 86.667 66.667 C 87.033 66.300, 87.033 65.700, 86.667 65.333 C 86.300 64.967, 86 65.267, 86 66 M 96.638 67.500 C 96.218 68.595, 96.762 69, 98.654 69 C 100.844 69, 101.052 68.768, 100 67.500 C 99.315 66.675, 98.408 66, 97.985 66 C 97.561 66, 96.955 66.675, 96.638 67.500 M 123.636 70.129 C 123.264 72.107, 122.080 74.522, 121.004 75.496 C 119.928 76.470, 119.295 77.668, 119.598 78.158 C 119.901 78.649, 119.778 78.949, 119.324 78.827 C 118.871 78.704, 117.481 78.950, 116.235 79.374 C 114.971 79.804, 114.266 80.622, 114.640 81.227 C 115.029 81.857, 114.844 82.022, 114.197 81.622 C 113.184 80.996, 104.846 82.050, 96 83.922 C 94.075 84.330, 92.598 85.146, 92.718 85.737 C 92.838 86.327, 92.253 87.073, 91.416 87.394 C 90.391 87.787, 90.138 87.574, 90.640 86.739 C 91.137 85.912, 90.824 85.954, 89.699 86.866 C 87.852 88.365, 85.730 94.988, 86.407 97.143 C 86.641 97.889, 87.109 99.756, 87.446 101.291 C 87.783 102.826, 88.490 103.815, 89.018 103.489 C 89.545 103.163, 89.723 103.559, 89.412 104.370 C 88.651 106.351, 90.817 110.231, 92.205 109.373 C 92.877 108.958, 93.026 109.150, 92.584 109.865 C 92.173 110.530, 93.411 113.154, 95.438 115.916 C 98.800 120.496, 101.416 122.559, 103.324 122.134 C 103.778 122.033, 103.816 122.488, 103.410 123.145 C 102.908 123.958, 103.200 124.137, 104.324 123.706 C 105.343 123.315, 105.885 123.537, 105.738 124.286 C 105.606 124.958, 106.481 125.467, 107.700 125.426 C 108.910 125.385, 109.680 125.710, 109.409 126.147 C 109.139 126.584, 110.096 127.237, 111.536 127.598 C 114.633 128.376, 119.109 126.285, 119.774 123.750 C 120.027 122.787, 120.435 122, 120.682 122 C 120.929 122, 121.945 122.436, 122.940 122.968 C 124.328 123.711, 125.184 123.424, 126.624 121.735 C 127.884 120.257, 127.969 119.943, 126.883 120.780 C 125.571 121.790, 125.028 121.739, 124.010 120.512 C 122.982 119.273, 123.035 119, 124.305 119 C 125.158 119, 127.046 117.537, 128.502 115.750 L 131.148 112.500 129.548 115.750 C 128.669 117.537, 128.176 119, 128.454 119 C 128.732 119, 129.900 117.156, 131.049 114.903 C 132.199 112.650, 132.888 110.151, 132.581 109.351 C 132.274 108.551, 132.410 108.135, 132.883 108.428 C 134.498 109.426, 139.148 93.986, 140.390 83.500 C 141.049 77.935, 139.882 72.366, 138.137 72.750 C 137.511 72.888, 137.112 72.438, 137.250 71.750 C 137.427 70.865, 135.776 70.493, 131.593 70.477 C 126.638 70.458, 125.575 70.138, 124.998 68.494 C 124.443 66.912, 124.180 67.228, 123.636 70.129 M 76.792 78.007 C 73.079 86.566, 71.177 92.352, 72.684 90.496 C 73.133 89.944, 74.850 89.368, 76.500 89.215 L 79.500 88.938 77.149 90.961 C 75.060 92.759, 74.987 93.058, 76.499 93.638 C 77.490 94.018, 78.571 93.708, 79.086 92.896 C 79.757 91.836, 79.973 92.019, 79.985 93.656 C 79.996 95.281, 79.534 95.691, 78.113 95.319 C 77.075 95.048, 75.936 95.295, 75.581 95.869 C 74.553 97.532, 72.010 95.993, 71.900 93.643 C 71.810 91.700, 71.726 91.733, 71 94 C 70.560 95.375, 70.155 97.564, 70.100 98.865 C 70.004 101.147, 70.086 101.174, 72.446 99.628 L 74.891 98.025 72.696 101.370 C 70.932 104.056, 70.366 104.398, 69.820 103.107 C 69.441 102.209, 69.110 103.577, 69.070 106.205 C 69.015 109.873, 69.519 111.429, 71.358 113.267 C 74.760 116.669, 77.361 129.027, 77.438 142.153 C 77.472 148.012, 77.759 152.387, 78.076 151.875 C 78.393 151.363, 78.670 152.419, 78.692 154.222 C 78.749 158.969, 81.267 171, 82.203 171 C 82.641 171, 83 169.186, 83 166.969 C 83 164.453, 83.522 162.737, 84.388 162.405 C 86.528 161.584, 88.390 147.252, 87.603 137.660 C 87.235 133.172, 85.612 122.075, 83.996 113 C 82.380 103.925, 80.786 94.316, 80.453 91.648 C 79.867 86.959, 79.748 86.810, 76.923 87.225 C 75.225 87.474, 74.015 87.202, 74.035 86.577 C 74.055 85.985, 74.714 84.375, 75.500 83 C 76.855 80.630, 76.931 80.612, 76.965 82.643 C 76.984 83.822, 77.715 85.060, 78.589 85.396 C 79.953 85.919, 80.130 85.157, 79.839 80.001 C 79.653 76.698, 79.889 73.867, 80.364 73.710 C 80.839 73.553, 81.059 72.544, 80.852 71.469 C 80.606 70.190, 79.201 72.453, 76.792 78.007 M 89.200 71.200 C 87.400 73, 87.749 75.462, 90.105 77.595 C 91.263 78.643, 92.404 79.404, 92.641 79.286 C 93.602 78.807, 96 76.099, 96 75.492 C 96 75.134, 94.604 75.148, 92.898 75.522 C 89.856 76.191, 89.809 76.144, 90.478 73.102 C 90.852 71.396, 90.988 70, 90.779 70 C 90.571 70, 89.860 70.540, 89.200 71.200 M 97.739 73.111 C 98.312 75.300, 100.342 75.147, 100.782 72.882 C 100.943 72.053, 100.240 71.368, 99.144 71.286 C 97.699 71.177, 97.352 71.629, 97.739 73.111 M 116.564 73.707 C 116.022 75.132, 116.136 75.247, 117.124 74.267 C 117.808 73.588, 118.115 72.781, 117.807 72.474 C 117.499 72.166, 116.940 72.721, 116.564 73.707 M 258 73.654 C 258 75.943, 254.796 79.777, 250.569 82.547 C 248.107 84.160, 247.972 84.506, 249.393 85.545 C 250.277 86.192, 251 87.225, 251 87.841 C 251 88.458, 252.125 89.244, 253.500 89.589 C 256.052 90.230, 256.722 91.436, 255.089 92.445 C 253.557 93.392, 247.981 89.641, 247.364 87.250 C 247.044 86.013, 246.467 85, 246.080 85 C 245.693 85, 244.392 85.918, 243.189 87.039 C 241.141 88.946, 240.535 90.748, 240.927 93.757 C 241.017 94.448, 239.495 95.955, 237.545 97.106 C 235.595 98.256, 234 99.603, 234 100.099 C 234 100.594, 233.438 101.007, 232.750 101.015 C 230.637 101.041, 228.706 102.715, 229.433 103.891 C 229.908 104.660, 230.700 104.696, 231.988 104.006 C 233.015 103.457, 234.567 103.280, 235.436 103.614 C 237.806 104.523, 238.564 108.865, 236.681 110.747 C 235.243 112.185, 234.725 111.984, 230.859 108.491 C 227.832 105.757, 226.498 105.065, 226.207 106.078 C 225.984 106.860, 224.618 108.498, 223.174 109.718 L 220.546 111.937 223.999 115.499 C 226.804 118.393, 227.248 119.383, 226.368 120.780 C 225.773 121.726, 224.525 122.650, 223.595 122.833 C 220.739 123.394, 218.855 120.973, 219.191 117.173 C 219.380 115.040, 219.015 113.523, 218.250 113.261 C 217.562 113.026, 217 113.623, 217 114.588 C 217 115.553, 216.282 117.136, 215.404 118.106 C 213.913 119.753, 214.145 120.040, 218.931 122.465 L 224.053 125.061 235.027 114.018 C 244.129 104.858, 246 102.460, 246 99.956 C 246 98.195, 246.625 96.697, 247.500 96.362 C 250.177 95.335, 249.105 93.818, 246.159 94.465 C 244.365 94.859, 242.934 94.612, 242.275 93.794 C 240.902 92.093, 242.451 88, 244.468 88 C 246.305 88, 246.443 89.157, 244.800 90.800 C 243.867 91.733, 244.422 92, 247.300 92 C 250.494 92, 251 92.314, 251 94.300 C 251 95.565, 250.460 97.140, 249.800 97.800 C 249.131 98.469, 249.043 99, 249.601 99 C 250.559 99, 257.915 91.703, 259.284 89.394 C 259.711 88.675, 259.132 88.443, 257.628 88.731 C 255.195 89.196, 252 86.823, 252 84.551 C 252 83.833, 252.688 82.674, 253.530 81.975 C 254.698 81.006, 255.642 80.971, 257.523 81.828 C 259.805 82.868, 259.898 82.810, 258.791 81.037 C 257.849 79.528, 257.888 78.578, 258.978 76.542 C 260.039 74.558, 260.086 73.686, 259.180 72.780 C 258.273 71.873, 258 72.076, 258 73.654 M 64.079 77.583 C 64.127 78.748, 64.364 78.985, 64.683 78.188 C 64.972 77.466, 64.936 76.603, 64.604 76.271 C 64.272 75.939, 64.036 76.529, 64.079 77.583 M 77.574 77.667 C 77.222 78.584, 77.399 79.799, 77.967 80.367 C 78.678 81.078, 79 80.557, 79 78.700 C 79 77.215, 78.823 76, 78.607 76 C 78.391 76, 77.926 76.750, 77.574 77.667 M 149.079 77.583 C 149.127 78.748, 149.364 78.985, 149.683 78.188 C 149.972 77.466, 149.936 76.603, 149.604 76.271 C 149.272 75.939, 149.036 76.529, 149.079 77.583 M 84.154 79.522 C 84.345 80.486, 85.572 81.670, 86.883 82.154 C 89.164 82.996, 89.203 82.939, 87.798 80.822 C 85.911 77.980, 83.695 77.189, 84.154 79.522 M 106.333 83.667 C 106.700 84.033, 107.300 84.033, 107.667 83.667 C 108.033 83.300, 107.733 83, 107 83 C 106.267 83, 105.967 83.300, 106.333 83.667 M 254.533 83.947 C 253.653 85.370, 254.775 87, 256.632 87 C 257.508 87, 258.010 86.297, 257.823 85.333 C 257.434 83.324, 255.437 82.484, 254.533 83.947 M 156 86.845 C 156 87.310, 156.900 88.505, 158 89.500 C 159.588 90.937, 160 91.010, 160 89.855 C 160 88.286, 158.102 86, 156.800 86 C 156.360 86, 156 86.380, 156 86.845 M 144 88 C 144 88.733, 144.300 89.033, 144.667 88.667 C 145.033 88.300, 145.033 87.700, 144.667 87.333 C 144.300 86.967, 144 87.267, 144 88 M 162 88.878 C 162 90.045, 162.423 91, 162.941 91 C 164.673 91, 164.994 89.240, 163.489 87.991 C 162.250 86.962, 162 87.111, 162 88.878 M 152.574 91.561 C 152.226 92.947, 151.505 93.812, 150.971 93.482 C 150.437 93.152, 150 94.034, 150 95.441 C 150 97.029, 150.559 98, 151.474 98 C 152.285 98, 153.647 99.350, 154.500 101 C 155.353 102.650, 156.741 104, 157.585 104 C 158.428 104, 158.845 103.558, 158.511 103.018 C 158.177 102.477, 160.026 100.058, 162.620 97.643 C 167.105 93.465, 167.209 93.250, 164.747 93.250 C 162.962 93.250, 162.322 93.677, 162.686 94.625 C 163.540 96.851, 161.539 96.204, 158.924 93.408 C 157.591 91.983, 155.759 90.417, 154.853 89.928 C 153.569 89.236, 153.067 89.595, 152.574 91.561 M 143 91 C 143 91.733, 143.300 92.033, 143.667 91.667 C 144.033 91.300, 144.033 90.700, 143.667 90.333 C 143.300 89.967, 143 90.267, 143 91 M 137 92 C 137 92.733, 137.300 93.033, 137.667 92.667 C 138.033 92.300, 138.033 91.700, 137.667 91.333 C 137.300 90.967, 137 91.267, 137 92 M 63 93.807 C 63 94.814, 61.897 96.031, 60.508 96.557 C 58.664 97.255, 58.254 97.874, 58.931 98.936 C 59.644 100.053, 60.162 100.110, 61.266 99.194 C 62.046 98.547, 62.980 98.313, 63.342 98.675 C 63.704 99.037, 64 97.683, 64 95.667 C 64 93.650, 63.775 92, 63.500 92 C 63.225 92, 63 92.813, 63 93.807 M 153.667 92.667 C 152.580 93.753, 152.906 97.506, 154.200 98.800 C 155.791 100.391, 158.487 100.323, 159.869 98.658 C 161.297 96.938, 160.098 95.674, 158.386 97.095 C 156.456 98.697, 154.750 97.132, 155.438 94.391 C 156.009 92.116, 155.101 91.232, 153.667 92.667 M 71 97 C 71 97.733, 71.300 98.033, 71.667 97.667 C 72.033 97.300, 72.033 96.700, 71.667 96.333 C 71.300 95.967, 71 96.267, 71 97 M 237.750 98.080 C 235.232 99.547, 235.596 102.689, 238.505 104.595 C 240.524 105.918, 241.300 105.996, 242.505 104.996 C 243.327 104.313, 244 103.065, 244 102.223 C 244 100.938, 243.676 100.983, 242 102.500 C 239.923 104.379, 239.137 103.263, 241.133 101.267 C 242.299 100.101, 241.672 96.976, 240.281 97.030 C 239.852 97.047, 238.713 97.519, 237.750 98.080 M 141 99.378 C 141 99.720, 141.900 100.900, 143 102 L 145 104 144.921 101.250 C 144.878 99.737, 144.609 99.081, 144.324 99.792 C 143.926 100.784, 143.480 100.813, 142.403 99.919 C 141.631 99.279, 141 99.035, 141 99.378 M 150 102 C 150 103.289, 150.506 103.998, 151.250 103.750 C 151.938 103.521, 152.500 102.733, 152.500 102 C 152.500 101.267, 151.938 100.479, 151.250 100.250 C 150.506 100.002, 150 100.711, 150 102 M 238 101.059 C 238 101.641, 238.450 101.840, 239 101.500 C 239.550 101.160, 240 100.684, 240 100.441 C 240 100.198, 239.550 100, 239 100 C 238.450 100, 238 100.477, 238 101.059 M 54.149 103.514 C 52.855 104.877, 51.393 105.743, 50.899 105.437 C 49.033 104.284, 50.121 106.441, 53.462 110.519 C 55.366 112.842, 56.603 115.096, 56.212 115.528 C 55.820 115.960, 57.413 115.260, 59.750 113.972 C 62.945 112.213, 64 111.027, 64 109.198 C 64 107.706, 62.742 105.654, 60.750 103.898 C 58.962 102.322, 57.275 101.033, 57 101.033 C 56.725 101.034, 55.442 102.150, 54.149 103.514 M 55.200 105.200 C 53.244 107.156, 53.826 109.964, 56.436 111.153 C 59.517 112.556, 62 111.641, 62 109.103 C 62 106.909, 59.508 104, 57.629 104 C 56.953 104, 55.860 104.540, 55.200 105.200 M 232.473 106.044 C 232.148 106.570, 232.160 107.450, 232.500 108 C 233.424 109.495, 236 109.206, 236 107.607 C 236 105.911, 233.296 104.713, 232.473 106.044 M 56.473 107.044 C 56.148 107.570, 56.160 108.450, 56.500 109 C 57.424 110.495, 60 110.206, 60 108.607 C 60 106.911, 57.296 105.713, 56.473 107.044 M 86.040 107.176 C 86.018 107.549, 86.900 112.418, 88 117.998 C 91.012 133.282, 91.533 145.770, 89.615 156.750 C 88.727 161.838, 88 166.249, 88 166.551 C 88 166.854, 89.561 167.754, 91.468 168.551 C 95.370 170.181, 104.625 170.473, 108.286 169.081 C 110.474 168.250, 110.762 167.419, 111.326 160.331 C 111.669 156.024, 112.254 150.519, 112.627 148.097 C 113.157 144.649, 113.026 143.866, 112.022 144.486 C 111.164 145.017, 110.907 144.820, 111.245 143.889 C 111.523 143.125, 112.191 142.591, 112.731 142.702 C 113.271 142.813, 114.273 141.013, 114.959 138.702 C 115.645 136.391, 116.643 133.964, 117.177 133.309 C 117.884 132.441, 117.111 131.931, 114.323 131.429 C 112.221 131.049, 108.751 129.909, 106.614 128.895 C 104.477 127.880, 102.270 127.333, 101.709 127.680 C 101.144 128.029, 100.994 127.818, 101.373 127.205 C 101.750 126.596, 101.034 125.534, 99.778 124.838 C 98.525 124.143, 97.129 123.682, 96.676 123.812 C 96.222 123.943, 96.105 123.639, 96.415 123.138 C 97.159 121.933, 94.550 119.805, 93.498 120.759 C 93.048 121.166, 92.962 121.004, 93.308 120.397 C 93.653 119.791, 93.242 118.441, 92.394 117.397 C 91.546 116.354, 91.182 116.175, 91.586 117 C 92.011 117.867, 91.942 118.154, 91.423 117.679 C 90.929 117.228, 90.520 116.103, 90.513 115.179 C 90.506 114.256, 89.904 113.624, 89.176 113.775 C 88.447 113.926, 88.130 113.599, 88.470 113.048 C 88.810 112.498, 88.412 110.799, 87.584 109.274 C 86.757 107.748, 86.062 106.804, 86.040 107.176 M 136.624 109.539 C 135.659 112.053, 135.943 112.702, 137.122 110.675 C 137.706 109.671, 137.973 108.639, 137.715 108.382 C 137.458 108.124, 136.966 108.645, 136.624 109.539 M 151.684 112.250 C 151.956 114.588, 152.842 119.875, 153.654 124 C 155.907 135.455, 157.975 161.733, 157.981 179 C 157.986 195.471, 156.815 202.604, 151.625 217.708 C 149.557 223.726, 149.227 226.202, 149.625 232.708 C 150.283 243.448, 150.936 247.157, 152.051 246.469 C 152.573 246.146, 153 246.359, 153 246.941 C 153 247.591, 155.852 248, 160.378 248 C 165.378 248, 168.119 248.438, 168.884 249.360 C 170.109 250.836, 175.348 250.371, 174.419 248.869 C 174.113 248.373, 173.432 248.233, 172.906 248.558 C 172.381 248.883, 172.074 248.553, 172.225 247.824 C 172.376 247.096, 171.904 246.624, 171.176 246.775 C 170.447 246.926, 170.117 246.619, 170.442 246.094 C 170.994 245.200, 169.324 243.550, 167.833 243.515 C 167.467 243.507, 166.792 243.090, 166.333 242.590 C 165.841 242.052, 166.065 242.007, 166.880 242.479 C 167.829 243.029, 168.102 242.845, 167.755 241.889 C 167.477 241.125, 166.710 240.624, 166.051 240.775 C 165.391 240.926, 165.096 240.654, 165.394 240.171 C 165.993 239.203, 164.457 233.938, 162.403 229.916 C 161.677 228.494, 160.617 225.254, 160.048 222.714 C 159.300 219.376, 159.333 217.320, 160.168 215.298 C 160.803 213.759, 161.250 212.163, 161.161 211.750 C 161.073 211.338, 161.338 211.094, 161.750 211.208 C 162.163 211.323, 165.104 210.423, 168.288 209.208 C 171.475 207.992, 176.331 207, 179.097 207 C 182.243 207, 183.884 206.621, 183.490 205.984 C 183.144 205.425, 182.373 205.269, 181.776 205.638 C 181.139 206.032, 180.978 205.845, 181.386 205.184 C 182.230 203.819, 179.252 197.726, 178.092 198.443 C 177.640 198.723, 177.429 193.602, 177.623 187.063 C 177.992 174.686, 176.926 169.500, 174.014 169.500 C 173.196 169.500, 172.357 168.614, 172.148 167.532 C 171.830 165.877, 172.010 165.763, 173.280 166.817 C 174.608 167.919, 174.602 167.552, 173.232 163.786 C 172.110 160.701, 171.725 156.327, 171.859 148.177 C 171.962 141.949, 171.698 137.063, 171.273 137.319 C 170.848 137.575, 170.432 134.451, 170.348 130.376 C 170.235 124.834, 169.605 121.775, 167.848 118.234 C 166.557 115.630, 164.904 113.624, 164.176 113.775 C 163.447 113.926, 163.105 113.639, 163.415 113.138 C 164.187 111.889, 161.343 109.670, 160.019 110.488 C 159.431 110.851, 159.074 110.563, 159.225 109.848 C 159.606 108.047, 155.249 107.555, 153.253 109.173 C 152.071 110.131, 151.825 110.152, 152.367 109.250 C 152.780 108.563, 152.684 108, 152.154 108 C 151.609 108, 151.405 109.848, 151.684 112.250 M 47 110.347 C 47 111.088, 46.010 112.136, 44.801 112.676 C 42.674 113.625, 42.728 113.743, 46.420 116.252 C 48.520 117.679, 50.931 118.580, 51.779 118.254 C 53.008 117.783, 52.878 117.499, 51.138 116.855 C 48.458 115.864, 47.401 113.427, 48.879 111.645 C 49.486 110.914, 49.687 110.020, 49.325 109.658 C 48.224 108.558, 47 108.921, 47 110.347 M 225.569 110.326 C 224.302 111.252, 223.963 112.308, 224.444 113.824 C 225.154 116.059, 229.070 117.693, 230.943 116.535 C 232.715 115.440, 232.135 111.142, 230.066 110.035 C 229.002 109.466, 227.963 109, 227.757 109 C 227.551 109, 226.566 109.597, 225.569 110.326 M 141.667 110.667 C 141.300 111.033, 141 111.988, 141 112.789 C 141 113.970, 141.283 114.010, 142.500 113 C 143.325 112.315, 144 111.360, 144 110.878 C 144 109.842, 142.616 109.717, 141.667 110.667 M 226.756 111.577 C 225.744 112.590, 227.098 115, 228.680 115 C 229.512 115, 230.007 114.278, 229.823 113.333 C 229.476 111.543, 227.768 110.565, 226.756 111.577 M 50.570 112.887 C 49.917 113.944, 52.783 116.550, 53.648 115.686 C 54.481 114.852, 53.276 112, 52.090 112 C 51.556 112, 50.871 112.399, 50.570 112.887 M 40.405 115.155 C 39.962 115.870, 40.130 116.038, 40.845 115.595 C 41.480 115.203, 42 114.684, 42 114.441 C 42 113.607, 41.117 114.002, 40.405 115.155 M 143.543 114.931 C 143.226 115.443, 143.425 116.144, 143.984 116.490 C 144.543 116.835, 145 116.416, 145 115.559 C 145 113.802, 144.400 113.544, 143.543 114.931 M 69.436 122 C 69.939 130.414, 74.820 148.181, 74.931 142 C 75.022 136.938, 72.124 121.213, 70.433 117.593 C 69.058 114.648, 69.010 114.859, 69.436 122 M 133.564 116.707 C 133.022 118.132, 133.136 118.247, 134.124 117.267 C 134.808 116.588, 135.115 115.781, 134.807 115.474 C 134.499 115.166, 133.940 115.721, 133.564 116.707 M 61.212 117.881 C 59.404 118.821, 58.265 119.932, 58.682 120.348 C 59.098 120.765, 58.591 120.780, 57.555 120.383 C 56.144 119.841, 55.877 119.992, 56.490 120.985 C 57.030 121.857, 56.922 122.070, 56.175 121.608 C 54.650 120.666, 50.773 122.824, 51.597 124.157 C 52.017 124.836, 51.521 124.983, 50.209 124.566 C 49.039 124.195, 47.853 124.429, 47.430 125.114 C 46.932 125.919, 47.118 126.045, 48 125.500 C 48.848 124.976, 49.067 125.082, 48.622 125.802 C 48.245 126.413, 47.202 126.631, 46.304 126.286 C 45.125 125.834, 44.899 126.028, 45.490 126.985 C 46.028 127.854, 45.922 128.070, 45.183 127.613 C 43.699 126.696, 38.830 129.916, 39.663 131.264 C 40.040 131.874, 39.826 132.011, 39.149 131.592 C 37.701 130.697, 29.357 137.410, 27.533 140.936 C 26.796 142.361, 25.902 145.770, 25.545 148.513 C 25.188 151.256, 24.429 156.537, 23.858 160.250 C 23.107 165.129, 23.144 169.010, 23.990 174.250 C 25.484 183.505, 30.432 197.469, 31.896 196.564 C 32.228 196.359, 32.562 197.161, 32.638 198.345 C 32.714 199.530, 33.643 203.719, 34.701 207.653 C 36.566 214.583, 36.570 215.034, 34.855 222.153 C 32.975 229.954, 32.474 237, 33.800 237 C 34.240 237, 35.028 236.611, 35.550 236.136 C 37.104 234.722, 45.522 233, 50.878 233 C 53.623 233, 57.024 233.439, 58.435 233.975 C 60.564 234.785, 61.017 234.657, 61.100 233.225 C 61.164 232.107, 61.481 232.379, 62 234 C 62.708 236.212, 62.812 236.258, 62.900 234.399 C 63.055 231.131, 60.935 225.922, 59.748 226.656 C 59.138 227.033, 58.985 226.833, 59.386 226.184 C 60.051 225.108, 57.525 219, 56.415 219 C 56.122 219, 56.203 219.520, 56.595 220.155 C 57.041 220.876, 56.869 221.037, 56.138 220.585 C 55.494 220.187, 55.216 219.460, 55.520 218.968 C 55.823 218.477, 54.931 215.823, 53.536 213.071 C 52.141 210.318, 51 207.350, 51 206.474 C 51 205.598, 50.663 205.090, 50.250 205.345 C 49.837 205.600, 49.383 202.814, 49.240 199.154 C 48.987 192.644, 47.395 186.634, 46.134 187.420 C 45.785 187.638, 45.652 184.897, 45.839 181.329 C 46.155 175.279, 44.608 168.506, 43.119 169.426 C 42.763 169.647, 42.444 167.170, 42.412 163.923 C 42.379 160.676, 42.557 158.224, 42.808 158.474 C 43.058 158.725, 44.173 158.292, 45.286 157.512 C 46.877 156.398, 47.757 156.344, 49.405 157.260 C 50.557 157.901, 51.752 158.358, 52.061 158.276 C 52.369 158.193, 52.577 160.685, 52.523 163.813 C 52.469 166.941, 51.746 170.753, 50.916 172.285 C 49.594 174.725, 49.578 176.028, 50.788 182.785 C 51.548 187.028, 52.553 191.471, 53.022 192.659 C 53.767 194.546, 54.323 194.717, 57.437 194.014 C 59.535 193.541, 61 193.592, 61 194.137 C 61 194.646, 60.312 195.327, 59.470 195.650 C 58.464 196.036, 58.143 196.966, 58.533 198.368 C 59.077 200.328, 58.952 200.298, 56.979 198 L 54.833 195.500 56.600 198.696 C 57.572 200.453, 58.729 201.667, 59.172 201.394 C 59.615 201.120, 59.681 201.668, 59.319 202.612 C 58.940 203.599, 59.066 204.077, 59.616 203.737 C 60.141 203.413, 60.629 203.901, 60.699 204.823 C 60.907 207.557, 64.176 216.009, 64.865 215.595 C 65.214 215.385, 65.596 217.753, 65.712 220.857 C 66.004 228.600, 66.919 233.168, 68.039 232.476 C 68.569 232.149, 68.690 232.643, 68.319 233.612 C 67.875 234.769, 68.038 235.095, 68.819 234.612 C 69.569 234.149, 69.773 234.429, 69.398 235.406 C 68.591 237.508, 71.862 238.154, 81.503 237.797 L 89.500 237.500 89.822 234.131 C 90.181 230.380, 88.250 224.728, 86.895 225.565 C 86.416 225.861, 86.263 225.478, 86.557 224.712 C 86.851 223.947, 86.309 222.686, 85.354 221.910 C 83.841 220.683, 83.726 220.694, 84.468 222 C 84.976 222.894, 84.953 223.163, 84.410 222.667 C 83.910 222.208, 83.480 221.308, 83.455 220.667 C 83.430 220.025, 82.867 219.612, 82.205 219.750 C 81.542 219.887, 81.096 219.662, 81.214 219.250 C 81.536 218.125, 74.500 211.500, 72.983 211.500 C 72.259 211.500, 71.028 209.585, 70.248 207.244 C 69.468 204.903, 68.423 203.239, 67.926 203.546 C 67.429 203.853, 67.259 203.488, 67.548 202.735 C 67.837 201.982, 67.156 199.371, 66.035 196.933 C 64.914 194.495, 64.244 193.485, 64.546 194.689 C 64.935 196.235, 64.495 197.200, 63.048 197.974 C 60.716 199.222, 60.501 198.772, 62.158 196.119 C 62.795 195.099, 63.013 193.475, 62.642 192.511 C 62.128 191.170, 61.265 190.897, 58.985 191.353 C 55.851 191.980, 55.196 191.204, 57.183 189.217 C 57.834 188.566, 58.089 187.756, 57.750 187.417 C 56.821 186.488, 54.969 187.935, 53.993 190.352 C 53.189 192.345, 53.122 192.302, 53.063 189.750 C 53.029 188.238, 53.527 187, 54.171 187 C 54.815 187, 56.111 186.304, 57.051 185.454 C 58.615 184.038, 58.814 184.123, 59.399 186.454 C 59.751 187.854, 60.667 189, 61.436 189 C 62.204 189, 63.022 189.338, 63.253 189.750 C 63.483 190.162, 63.521 189.901, 63.336 189.168 C 63.151 188.436, 63 187.172, 63 186.359 C 63 185.547, 62.597 185.131, 62.105 185.435 C 61.612 185.740, 60.937 185.279, 60.605 184.412 C 59.745 182.171, 59.884 181.269, 60.854 182.798 C 61.307 183.512, 61.466 177.139, 61.208 168.636 C 60.825 156.056, 61.122 150.878, 62.802 140.838 C 65.381 125.426, 65.822 121.072, 65.084 118.335 C 64.513 116.219, 64.427 116.209, 61.212 117.881 M 40.015 118.115 C 40.024 118.877, 40.448 120.160, 40.958 120.966 C 41.558 121.915, 41.464 122.974, 40.693 123.966 C 39.630 125.333, 39.718 125.340, 41.500 124.033 C 42.600 123.226, 43.664 122.462, 43.864 122.336 C 44.064 122.209, 43.277 120.896, 42.114 119.418 C 40.951 117.940, 40.007 117.353, 40.015 118.115 M 83 118 C 83 118.733, 83.300 119.033, 83.667 118.667 C 84.033 118.300, 84.033 117.700, 83.667 117.333 C 83.300 116.967, 83 117.267, 83 118 M 221.154 118.552 C 221.345 119.532, 222.105 120.536, 222.846 120.782 C 223.706 121.069, 224.066 120.588, 223.846 119.448 C 223.655 118.468, 222.895 117.464, 222.154 117.218 C 221.294 116.931, 220.934 117.412, 221.154 118.552 M 44 119 C 44 119.550, 44.450 120, 45 120 C 45.550 120, 46 119.550, 46 119 C 46 118.450, 45.550 118, 45 118 C 44.450 118, 44 118.450, 44 119 M 211.667 118.667 C 211.300 119.033, 211 119.798, 211 120.367 C 211 120.993, 211.466 120.934, 212.183 120.217 C 212.834 119.566, 213.134 118.801, 212.850 118.517 C 212.566 118.233, 212.033 118.300, 211.667 118.667 M 148.483 138.620 C 147.890 154.437, 148.066 160.773, 149.372 170.562 C 150.267 177.279, 151 185.551, 151 188.946 C 151 192.806, 151.375 194.887, 152 194.500 C 152.565 194.151, 153 194.970, 153 196.382 C 153 199.250, 151.046 201.051, 150.910 198.309 C 150.860 197.314, 150.406 198.075, 149.900 200 C 149.395 201.925, 148.503 205.075, 147.919 207 C 147.336 208.925, 147.003 212.750, 147.179 215.500 L 147.500 220.500 149.826 213 C 151.105 208.875, 152.600 204.150, 153.148 202.500 C 154.826 197.442, 155.314 173.366, 154.080 156.500 C 153.043 142.332, 150.314 120.026, 149.516 119.195 C 149.355 119.027, 148.890 127.768, 148.483 138.620 M 70.158 123 C 70.158 124.375, 70.385 124.938, 70.662 124.250 C 70.940 123.563, 70.940 122.438, 70.662 121.750 C 70.385 121.063, 70.158 121.625, 70.158 123 M 76 122 C 76 122.733, 76.300 123.033, 76.667 122.667 C 77.033 122.300, 77.033 121.700, 76.667 121.333 C 76.300 120.967, 76 121.267, 76 122 M 134.168 124.750 C 134.076 126.537, 133.600 128, 133.112 128 C 131.841 128, 123.501 136.393, 120.409 140.783 C 117.834 144.440, 117.802 144.453, 118.462 141.562 C 118.831 139.946, 119.847 138.102, 120.719 137.463 C 121.685 136.757, 121.993 135.797, 121.506 135.009 C 119.615 131.949, 115.685 145.297, 114.442 159 C 113.881 165.191, 113.992 166.282, 115.081 165.250 C 115.806 164.563, 116.985 164, 117.700 164 C 118.641 164, 119 165.901, 119 170.875 C 119 179.310, 119.891 184.185, 121.276 183.329 C 121.891 182.949, 122.005 183.183, 121.558 183.906 C 120.562 185.518, 122.941 191.154, 124.271 190.333 C 124.866 189.965, 125.010 190.175, 124.608 190.825 C 123.770 192.181, 125.754 196.270, 126.905 195.559 C 127.347 195.285, 128.787 196.285, 130.105 197.781 L 132.500 200.500 129.500 198.004 L 126.500 195.507 129.484 198.802 C 131.125 200.615, 132.575 201.738, 132.707 201.299 C 136.675 188.068, 139.985 173.393, 139.992 169 C 139.997 166.525, 138.886 156.625, 137.524 147 C 136.163 137.375, 134.888 127.700, 134.692 125.500 C 134.383 122.023, 134.314 121.925, 134.168 124.750 M 210.022 122.596 C 209.988 124.286, 213.042 130, 213.980 130 C 214.438 130, 214.606 129.213, 214.353 128.250 C 213.760 125.995, 210.051 121.153, 210.022 122.596 M 214.500 124 C 214.840 124.550, 215.568 125, 216.118 125 C 216.668 125, 216.840 124.550, 216.500 124 C 216.160 123.450, 215.432 123, 214.882 123 C 214.332 123, 214.160 123.450, 214.500 124 M 120.559 126.532 C 119.491 127.339, 119.099 128, 119.686 128 C 120.274 128, 121.315 127.325, 122 126.500 C 123.557 124.624, 123.067 124.634, 120.559 126.532 M 130 127.089 C 127.846 128.851, 127.804 128.986, 129.694 128.062 C 130.901 127.472, 132.165 126.542, 132.503 125.995 C 133.406 124.534, 132.800 124.799, 130 127.089 M 217.514 126.351 C 217.323 126.983, 217.205 128.292, 217.251 129.260 C 217.326 130.858, 217.504 130.836, 219.206 129.010 C 220.235 127.904, 221.510 127, 222.039 127 C 222.568 127, 223 126.662, 222.999 126.250 C 222.998 125.014, 217.888 125.109, 217.514 126.351 M 71.158 128 C 71.158 129.375, 71.385 129.938, 71.662 129.250 C 71.940 128.563, 71.940 127.438, 71.662 126.750 C 71.385 126.063, 71.158 126.625, 71.158 128 M 112.333 126.667 C 112.700 127.033, 113.300 127.033, 113.667 126.667 C 114.033 126.300, 113.733 126, 113 126 C 112.267 126, 111.967 126.300, 112.333 126.667 M 117 128 C 117 128.733, 117.300 129.033, 117.667 128.667 C 118.033 128.300, 118.033 127.700, 117.667 127.333 C 117.300 126.967, 117 127.267, 117 128 M 125.244 129.735 C 124.553 129.975, 124.289 130.659, 124.658 131.255 C 125.082 131.941, 124.728 132.110, 123.696 131.714 C 122.798 131.369, 121.755 131.587, 121.378 132.198 C 120.981 132.839, 121.143 133.030, 121.760 132.648 C 122.348 132.285, 123.039 132.553, 123.295 133.244 C 123.642 134.181, 124.200 134.081, 125.496 132.848 C 127.400 131.037, 127.238 129.044, 125.244 129.735 M 169.079 131.583 C 169.127 132.748, 169.364 132.985, 169.683 132.188 C 169.972 131.466, 169.936 130.603, 169.604 130.271 C 169.272 129.939, 169.036 130.529, 169.079 131.583 M 72.079 132.583 C 72.127 133.748, 72.364 133.985, 72.683 133.188 C 72.972 132.466, 72.936 131.603, 72.604 131.271 C 72.272 130.939, 72.036 131.529, 72.079 132.583 M 110.133 132.660 C 110.963 133.660, 110.604 134.200, 108.609 134.959 C 107.174 135.504, 106 136.213, 106 136.534 C 106 136.855, 106.493 136.813, 107.095 136.441 C 107.697 136.069, 109.506 136.737, 111.114 137.926 L 114.039 140.088 113.823 137.266 C 113.705 135.713, 113.917 133.944, 114.294 133.333 C 114.721 132.642, 113.861 132.060, 112.014 131.789 C 109.659 131.443, 109.272 131.623, 110.133 132.660 M 150.158 133 C 150.158 134.375, 150.385 134.938, 150.662 134.250 C 150.940 133.563, 150.940 132.438, 150.662 131.750 C 150.385 131.063, 150.158 131.625, 150.158 133 M 65.468 144.574 C 64.100 153.622, 63.852 159.200, 64.368 169.374 C 64.734 176.593, 65.303 183.738, 65.633 185.250 C 65.963 186.762, 66.906 188, 67.728 188 C 68.870 188, 69.082 188.768, 68.628 191.250 C 68.301 193.037, 68.469 195.175, 69.001 196 C 69.666 197.030, 70.045 194.212, 70.211 187 C 70.344 181.225, 70.435 174.584, 70.413 172.243 C 70.390 169.754, 70.705 168.508, 71.171 169.243 C 71.774 170.193, 71.981 170.134, 72.016 169 C 72.041 168.175, 72.498 164.141, 73.031 160.035 C 73.940 153.025, 73.811 151.987, 70.906 143.035 C 69.204 137.791, 67.682 133.365, 67.522 133.200 C 67.363 133.034, 66.438 138.153, 65.468 144.574 M 73 137 C 73 137.733, 73.300 138.033, 73.667 137.667 C 74.033 137.300, 74.033 136.700, 73.667 136.333 C 73.300 135.967, 73 136.267, 73 137 M 105.044 138.764 C 105.020 139.459, 105.417 140.809, 105.927 141.764 C 106.437 142.719, 107.164 144.400, 107.543 145.500 C 107.935 146.635, 108.425 146.990, 108.676 146.320 C 108.920 145.671, 108.213 143.421, 107.104 141.320 C 105.995 139.219, 105.069 138.069, 105.044 138.764 M 86.286 143.500 C 86.294 146.250, 86.488 147.256, 86.718 145.736 C 86.947 144.216, 86.941 141.966, 86.704 140.736 C 86.467 139.506, 86.279 140.750, 86.286 143.500 M 109 139.882 C 109 140.432, 109.450 141.160, 110 141.500 C 110.550 141.840, 111 141.668, 111 141.118 C 111 140.568, 110.550 139.840, 110 139.500 C 109.450 139.160, 109 139.332, 109 139.882 M 176 140 C 176 140.733, 176.300 141.033, 176.667 140.667 C 177.033 140.300, 177.033 139.700, 176.667 139.333 C 176.300 138.967, 176 139.267, 176 140 M 149.195 143.500 C 149.215 145.150, 149.439 145.704, 149.693 144.731 C 149.947 143.758, 149.930 142.408, 149.656 141.731 C 149.382 141.054, 149.175 141.850, 149.195 143.500 M 157.158 143 C 157.158 144.375, 157.385 144.938, 157.662 144.250 C 157.940 143.563, 157.940 142.438, 157.662 141.750 C 157.385 141.063, 157.158 141.625, 157.158 143 M 170.079 142.583 C 170.127 143.748, 170.364 143.985, 170.683 143.188 C 170.972 142.466, 170.936 141.603, 170.604 141.271 C 170.272 140.939, 170.036 141.529, 170.079 142.583 M 176 144 C 176 144.733, 176.300 145.033, 176.667 144.667 C 177.033 144.300, 177.033 143.700, 176.667 143.333 C 176.300 142.967, 176 143.267, 176 144 M 21 145 C 21 145.733, 21.300 146.033, 21.667 145.667 C 22.033 145.300, 22.033 144.700, 21.667 144.333 C 21.300 143.967, 21 144.267, 21 145 M 27 145 C 27 145.733, 27.300 146.033, 27.667 145.667 C 28.033 145.300, 28.033 144.700, 27.667 144.333 C 27.300 143.967, 27 144.267, 27 145 M 143.252 148.500 C 143.263 150.700, 143.468 151.482, 143.707 150.238 C 143.946 148.994, 143.937 147.194, 143.687 146.238 C 143.437 145.282, 143.241 146.300, 143.252 148.500 M 8 147.845 C 8 148.310, 8.900 149.505, 10 150.500 C 11.952 152.267, 12 152.247, 12 149.655 C 12 147.667, 11.498 147, 10 147 C 8.900 147, 8 147.380, 8 147.845 M 111 148 C 111 148.733, 111.300 149.033, 111.667 148.667 C 112.033 148.300, 112.033 147.700, 111.667 147.333 C 111.300 146.967, 111 147.267, 111 148 M 14 150 C 14 151.497, 14.667 152, 16.653 152 L 19.306 152 17 150 C 15.732 148.900, 14.538 148, 14.347 148 C 14.156 148, 14 148.900, 14 150 M 4.634 152.080 C 4.277 153.863, 3.089 155.950, 1.993 156.718 C -0.578 158.518, -0.571 159.962, 2.005 159.288 C 4.650 158.597, 7 160.651, 7 163.654 C 7 166.533, 4.460 167.768, 1.868 166.149 C 0.354 165.204, -0 165.269, -0 166.492 C -0 167.321, 0.675 168, 1.500 168 C 3.358 168, 3.480 169.879, 1.667 170.574 C 0.933 170.856, 0.333 171.682, 0.333 172.410 C 0.333 173.138, 2.285 171.656, 4.671 169.117 C 9.719 163.744, 9.031 164.434, 15.750 157.992 C 18.638 155.223, 21 152.417, 21 151.756 C 21 151.096, 20.328 151.514, 19.507 152.686 C 18.546 154.058, 17.325 154.636, 16.075 154.309 C 14.462 153.888, 14.231 154.198, 14.704 156.151 C 15.203 158.214, 14.740 158.012, 10.910 154.500 C 8.511 152.300, 6.264 150.126, 5.915 149.669 C 5.567 149.212, 4.991 150.297, 4.634 152.080 M 59.232 155 C 59.232 156.925, 59.438 157.713, 59.689 156.750 C 59.941 155.787, 59.941 154.213, 59.689 153.250 C 59.438 152.287, 59.232 153.075, 59.232 155 M 72.079 153.583 C 72.127 154.748, 72.364 154.985, 72.683 154.188 C 72.972 153.466, 72.936 152.603, 72.604 152.271 C 72.272 151.939, 72.036 152.529, 72.079 153.583 M 110 153 C 110 153.733, 110.300 154.033, 110.667 153.667 C 111.033 153.300, 111.033 152.700, 110.667 152.333 C 110.300 151.967, 110 152.267, 110 153 M 179 152.566 C 179 153.681, 181.085 157, 181.785 157 C 182.178 157, 182.500 155.875, 182.500 154.500 C 182.500 152.786, 181.950 152, 180.750 152 C 179.787 152, 179 152.255, 179 152.566 M 6.250 153.718 C 4.658 154.289, 4.626 158.226, 6.200 159.800 C 7.656 161.256, 11.646 161.382, 12.500 160 C 12.840 159.450, 12.826 158.528, 12.470 157.951 C 12.029 157.238, 11.357 157.289, 10.369 158.109 C 9.300 158.996, 8.620 159.020, 7.800 158.200 C 6.980 157.380, 7.004 156.700, 7.891 155.631 C 9.193 154.063, 8.275 152.992, 6.250 153.718 M 65 154 C 65 154.733, 65.300 155.033, 65.667 154.667 C 66.033 154.300, 66.033 153.700, 65.667 153.333 C 65.300 152.967, 65 153.267, 65 154 M 143.272 157 C 143.272 159.475, 143.467 160.488, 143.706 159.250 C 143.944 158.012, 143.944 155.988, 143.706 154.750 C 143.467 153.512, 143.272 154.525, 143.272 157 M 184.275 155 C 184.177 156.304, 184.741 157, 185.895 157 C 188.582 157, 189.170 155.850, 187.234 154.381 C 186.281 153.656, 185.258 153.049, 184.963 153.032 C 184.667 153.014, 184.358 153.900, 184.275 155 M 137 157 C 137 157.733, 137.300 158.033, 137.667 157.667 C 138.033 157.300, 138.033 156.700, 137.667 156.333 C 137.300 155.967, 137 156.267, 137 157 M 25 160 C 25 160.733, 25.300 161.033, 25.667 160.667 C 26.033 160.300, 26.033 159.700, 25.667 159.333 C 25.300 158.967, 25 159.267, 25 160 M 90.079 160.583 C 90.127 161.748, 90.364 161.985, 90.683 161.188 C 90.972 160.466, 90.936 159.603, 90.604 159.271 C 90.272 158.939, 90.036 159.529, 90.079 160.583 M 149.079 160.583 C 149.127 161.748, 149.364 161.985, 149.683 161.188 C 149.972 160.466, 149.936 159.603, 149.604 159.271 C 149.272 158.939, 149.036 159.529, 149.079 160.583 M 45.776 161.750 C 45.525 162.713, 45.856 165.300, 46.513 167.500 L 47.707 171.500 48.895 168.576 C 50.269 165.194, 49.446 160, 47.537 160 C 46.820 160, 46.027 160.787, 45.776 161.750 M 1.756 161.577 C 0.744 162.590, 2.098 165, 3.680 165 C 4.512 165, 5.007 164.278, 4.823 163.333 C 4.476 161.543, 2.768 160.565, 1.756 161.577 M 76.091 162 C 76.029 162.825, 75.773 165.300, 75.523 167.500 C 75.125 171, 75.174 171.125, 75.916 168.500 C 76.721 165.652, 76.769 165.721, 76.882 169.872 C 76.984 173.652, 76.797 174.076, 75.500 173 C 74.226 171.942, 74.002 172.187, 74.015 174.628 C 74.026 176.664, 74.286 177.097, 74.908 176.115 C 75.613 175.002, 75.999 175.129, 76.874 176.765 C 77.753 178.407, 77.629 178.947, 76.232 179.559 C 75.279 179.976, 74.162 180.246, 73.750 180.159 C 72.799 179.957, 72.896 198.879, 73.859 201.322 C 74.375 202.631, 75.079 201.210, 76.358 196.277 C 77.569 191.610, 78.120 185.900, 78.078 178.455 C 78.045 172.430, 77.610 165.925, 77.111 164 C 76.613 162.075, 76.154 161.175, 76.091 162 M 81.079 163.583 C 81.127 164.748, 81.364 164.985, 81.683 164.188 C 81.972 163.466, 81.936 162.603, 81.604 162.271 C 81.272 161.939, 81.036 162.529, 81.079 163.583 M 169.506 163.994 C 168.507 165.097, 167.145 166, 166.480 166 C 165.814 166, 164.144 166.885, 162.769 167.967 C 161.393 169.049, 159.983 169.649, 159.634 169.301 C 159.285 168.952, 159.007 172.679, 159.015 177.583 C 159.025 183.054, 159.368 185.967, 159.904 185.122 C 160.384 184.364, 161.272 184.050, 161.877 184.424 C 162.569 184.851, 162.756 184.528, 162.382 183.552 C 162.053 182.696, 162.309 182, 162.952 182 C 163.593 182, 163.838 181.547, 163.496 180.993 C 163.153 180.439, 163.577 179.716, 164.437 179.386 C 167.016 178.396, 166.201 176.903, 163.250 177.212 C 160.807 177.468, 160.465 177.137, 160.187 174.250 C 159.918 171.466, 160.191 171, 162.092 171 C 164.247 171, 164.258 171.057, 162.500 173 C 160.721 174.966, 160.753 175, 164.376 175 C 168.667 175, 170.092 177.136, 167.621 179.866 C 166.730 180.851, 166 182.067, 166 182.569 C 166 183.070, 167.143 182.247, 168.540 180.740 C 169.938 179.233, 171.513 178, 172.040 178 C 172.568 178, 173 177.373, 173 176.607 C 173 175.841, 173.675 174.955, 174.500 174.638 C 176.589 173.837, 176.380 172, 174.200 172 C 173.210 172, 171.860 171.460, 171.200 170.800 C 169.664 169.264, 169.655 165.745, 171.183 164.217 C 171.834 163.566, 172.131 162.798, 171.844 162.511 C 171.556 162.223, 170.504 162.890, 169.506 163.994 M 59.195 169.500 C 59.215 171.150, 59.439 171.704, 59.693 170.731 C 59.947 169.758, 59.930 168.408, 59.656 167.731 C 59.382 167.054, 59.175 167.850, 59.195 169.500 M 153.158 169 C 153.158 170.375, 153.385 170.938, 153.662 170.250 C 153.940 169.563, 153.940 168.438, 153.662 167.750 C 153.385 167.063, 153.158 167.625, 153.158 169 M 164 168.885 C 164 170.234, 169.781 175.500, 171.262 175.500 C 173.325 175.500, 172.987 173.468, 170.754 172.452 C 169.514 171.888, 168.613 170.881, 168.750 170.213 C 168.887 169.546, 168.587 169, 168.082 169 C 167.577 169, 166.452 168.727, 165.582 168.393 C 164.712 168.059, 164 168.281, 164 168.885 M 65.158 171 C 65.158 172.375, 65.385 172.938, 65.662 172.250 C 65.940 171.563, 65.940 170.438, 65.662 169.750 C 65.385 169.063, 65.158 169.625, 65.158 171 M 114.821 169.540 C 114.020 170.766, 115.265 181.586, 116.944 188 C 118.891 195.439, 121.203 200.993, 122.117 200.428 C 122.590 200.135, 122.757 200.482, 122.487 201.198 C 122.218 201.914, 123.156 203.850, 124.571 205.500 C 125.987 207.150, 126.866 207.947, 126.526 207.271 C 126.186 206.595, 126.408 205.107, 127.019 203.964 C 127.969 202.190, 127.611 201.311, 124.565 197.941 C 122.604 195.770, 121 193.519, 121 192.938 C 121 192.357, 120.480 192.203, 119.845 192.595 C 119.172 193.012, 118.961 192.872, 119.339 192.261 C 119.695 191.684, 119.238 189.477, 118.322 187.356 C 117.407 185.235, 116.398 180.125, 116.079 176 C 115.761 171.875, 115.194 168.968, 114.821 169.540 M 68.825 174.659 C 68.640 176.275, 67.961 177.392, 67.250 177.250 C 66.563 177.113, 66 177.825, 66 178.833 C 66 179.842, 66.648 180.667, 67.440 180.667 C 68.335 180.667, 69.130 179.190, 69.540 176.766 C 69.902 174.621, 69.963 172.629, 69.675 172.341 C 69.386 172.053, 69.004 173.096, 68.825 174.659 M 25 175 C 25 175.733, 25.300 176.033, 25.667 175.667 C 26.033 175.300, 26.033 174.700, 25.667 174.333 C 25.300 173.967, 25 174.267, 25 175 M 245.117 176.625 C 246.345 177.931, 247.448 179, 247.569 179 C 247.689 179, 247.724 177.931, 247.644 176.625 C 247.537 174.854, 246.914 174.250, 245.193 174.250 L 242.886 174.250 245.117 176.625 M 145.079 176.583 C 145.127 177.748, 145.364 177.985, 145.683 177.188 C 145.972 176.466, 145.936 175.603, 145.604 175.271 C 145.272 174.939, 145.036 175.529, 145.079 176.583 M 249.453 176.076 C 248.601 177.454, 249.461 178.264, 251.323 177.838 C 252.560 177.556, 252.582 177.297, 251.454 176.260 C 250.535 175.415, 249.898 175.356, 249.453 176.076 M 137 177 C 137 177.733, 137.300 178.033, 137.667 177.667 C 138.033 177.300, 138.033 176.700, 137.667 176.333 C 137.300 175.967, 137 176.267, 137 177 M 143.079 177.583 C 143.127 178.748, 143.364 178.985, 143.683 178.188 C 143.972 177.466, 143.936 176.603, 143.604 176.271 C 143.272 175.939, 143.036 176.529, 143.079 177.583 M 239.049 181.105 C 237.701 183.247, 236.013 185, 235.299 185 C 234.585 185, 234 185.381, 234 185.847 C 234 186.313, 232.988 187.188, 231.750 187.792 L 229.500 188.890 231.750 189.561 C 233.049 189.949, 234 191.029, 234 192.117 C 234 193.805, 235.069 194.463, 237.250 194.118 C 237.662 194.053, 238 194.675, 238 195.500 C 238 196.341, 237.108 197, 235.969 197 C 234.851 197, 233.678 196.325, 233.362 195.500 C 233.045 194.675, 232.197 194, 231.476 194 C 230.756 194, 229.784 192.853, 229.317 191.451 L 228.468 188.903 225.484 192.186 C 223.843 193.991, 223.484 194.644, 224.687 193.636 C 227.485 191.292, 229.825 192.431, 227.496 195.004 C 225.952 196.711, 226.037 196.801, 229.043 196.655 C 231.064 196.557, 232.624 197.117, 233.320 198.191 C 234.171 199.505, 233.999 200.343, 232.553 201.941 C 231.528 203.074, 230.952 204, 231.272 204 C 231.986 204, 249.731 186.421, 252.489 182.981 C 253.583 181.616, 254.075 180.834, 253.581 181.241 C 253.088 181.649, 252.015 181.428, 251.198 180.749 C 249.936 179.702, 249.819 179.854, 250.423 181.758 C 250.815 182.991, 250.733 184, 250.242 184 C 249.751 184, 248.258 182.834, 246.924 181.408 C 242.676 176.867, 241.738 176.830, 239.049 181.105 M 110 179 C 110 179.733, 110.300 180.033, 110.667 179.667 C 111.033 179.300, 111.033 178.700, 110.667 178.333 C 110.300 177.967, 110 178.267, 110 179 M 152.117 186.160 C 152.161 190.767, 152.503 192.817, 153.077 191.910 C 154.289 189.996, 154.244 179, 153.025 179 C 152.477 179, 152.080 182.131, 152.117 186.160 M 241.667 180.667 C 240.575 181.758, 240.910 185.826, 242.154 186.595 C 242.789 186.988, 244.364 187.425, 245.654 187.566 C 247.799 187.802, 248.093 187.507, 247.954 185.250 C 247.929 184.838, 246.745 184.652, 245.323 184.839 C 242.992 185.144, 242.802 184.924, 243.388 182.589 C 244.001 180.147, 243.143 179.190, 241.667 180.667 M 74.136 185.250 C 74.246 187.869, 74.361 188.032, 74.727 186.088 C 75.079 184.221, 75.384 183.995, 76.075 185.088 C 76.755 186.162, 76.973 185.961, 76.985 184.250 C 76.994 182.910, 76.393 182, 75.500 182 C 74.446 182, 74.041 182.967, 74.136 185.250 M 89 183 C 89 183.733, 89.300 184.033, 89.667 183.667 C 90.033 183.300, 90.033 182.700, 89.667 182.333 C 89.300 181.967, 89 182.267, 89 183 M 67 184.441 C 67 185.234, 67.450 186.160, 68 186.500 C 68.550 186.840, 69 186.191, 69 185.059 C 69 183.927, 68.550 183, 68 183 C 67.450 183, 67 183.648, 67 184.441 M 144.624 185.286 C 142.983 186.486, 143.003 186.571, 144.933 186.571 C 146.070 186.571, 147 185.993, 147 185.286 C 147 184.579, 146.861 184, 146.691 184 C 146.521 184, 145.591 184.579, 144.624 185.286 M 85.676 193.500 C 86.203 203.494, 87.463 210.968, 89.384 215.500 C 90.555 218.260, 90.624 217.981, 90.246 212 C 89.763 204.348, 88.660 197.593, 86.655 190 L 85.202 184.500 85.676 193.500 M 80.642 190.905 C 80.229 193.878, 78.965 198.983, 77.834 202.250 L 75.779 208.189 79.552 212.053 C 81.627 214.178, 83.771 215.641, 84.317 215.304 C 84.863 214.967, 85.019 215.160, 84.666 215.732 C 84.312 216.305, 84.692 217.329, 85.511 218.009 C 86.330 218.689, 86.994 219.077, 86.987 218.872 C 86.980 218.668, 86.080 215.647, 84.987 212.161 C 83.894 208.674, 82.974 203.049, 82.942 199.661 C 82.911 196.272, 82.549 191.700, 82.140 189.500 L 81.395 185.500 80.642 190.905 M 90 187 C 90 187.733, 90.300 188.033, 90.667 187.667 C 91.033 187.300, 91.033 186.700, 90.667 186.333 C 90.300 185.967, 90 186.267, 90 187 M 160.152 186.885 C 159.410 187.355, 158.960 188.467, 159.152 189.357 C 159.415 190.578, 159.783 190.364, 160.656 188.487 C 161.292 187.119, 161.742 186.007, 161.656 186.015 C 161.570 186.024, 160.893 186.415, 160.152 186.885 M 235.277 187.123 C 234.473 187.927, 234.454 188.903, 235.213 190.568 C 235.795 191.845, 236.903 193.132, 237.675 193.429 C 239.187 194.009, 243 192.050, 243 190.694 C 243 190.240, 242.534 188.998, 241.965 187.934 C 240.829 185.811, 237.047 185.353, 235.277 187.123 M 181.079 189.583 C 181.127 190.748, 181.364 190.985, 181.683 190.188 C 181.972 189.466, 181.936 188.603, 181.604 188.271 C 181.272 187.939, 181.036 188.529, 181.079 189.583 M 237 189.427 C 237 190.354, 237.855 191, 239.083 191 C 241.520 191, 241.176 188.663, 238.667 188.177 C 237.680 187.985, 237 188.495, 237 189.427 M 67 190 C 67 190.733, 67.300 191.033, 67.667 190.667 C 68.033 190.300, 68.033 189.700, 67.667 189.333 C 67.300 188.967, 67 189.267, 67 190 M 74.624 194.539 C 74.281 195.432, 74.029 196.689, 74.063 197.332 C 74.098 197.974, 74.558 197.422, 75.085 196.105 C 75.612 194.787, 75.864 193.531, 75.645 193.312 C 75.426 193.093, 74.966 193.645, 74.624 194.539 M 81.079 194.583 C 81.127 195.748, 81.364 195.985, 81.683 195.188 C 81.972 194.466, 81.936 193.603, 81.604 193.271 C 81.272 192.939, 81.036 193.529, 81.079 194.583 M 47 195.678 C 47 197.863, 44.104 201, 42.088 201 C 41.398 201, 41.019 201.557, 41.246 202.238 C 41.473 202.919, 43.287 203.482, 45.276 203.488 L 48.893 203.500 48.306 199 C 47.671 194.141, 47 192.433, 47 195.678 M 132 197 C 132 197.733, 132.300 198.033, 132.667 197.667 C 133.033 197.300, 133.033 196.700, 132.667 196.333 C 132.300 195.967, 132 196.267, 132 197 M 223 197.834 C 223 199.233, 222.143 200.375, 220.675 200.934 C 219.396 201.420, 217.616 202.937, 216.720 204.305 C 215.823 205.673, 214.507 206.727, 213.795 206.646 C 213.083 206.566, 212.407 206.950, 212.294 207.500 C 212.181 208.050, 213.457 208.354, 215.129 208.175 C 220.009 207.653, 221.885 211.670, 218.687 215.793 C 217.901 216.806, 217.015 216.471, 214.592 214.241 C 212.891 212.676, 210.639 210.744, 209.587 209.948 C 207.910 208.678, 207.735 208.683, 208.167 209.990 C 208.690 211.570, 205.073 215, 202.884 215 C 202.169 215, 203.452 216.912, 205.735 219.250 C 209.062 222.657, 209.689 223.847, 208.893 225.250 C 207.699 227.355, 203.703 227.552, 202.071 225.586 C 201.426 224.808, 201.033 223.120, 201.199 221.836 C 201.364 220.551, 201.050 219.275, 200.500 219 C 199.950 218.725, 199.356 219.512, 199.180 220.750 C 198.943 222.424, 198.196 223, 196.264 223 C 194.835 223, 194.004 223.338, 194.417 223.750 C 194.829 224.162, 195.467 224.545, 195.833 224.600 C 197.646 224.871, 204.981 228.596, 204.990 229.250 C 204.995 229.662, 203.988 230.007, 202.750 230.015 C 199.742 230.036, 197.405 231.514, 198.910 232.444 C 199.527 232.826, 199.815 233.491, 199.548 233.922 C 199.282 234.353, 199.749 235.559, 200.587 236.603 C 202.040 238.412, 202.061 238.399, 201.056 236.317 C 200.144 234.428, 200.439 233.826, 203.251 231.835 C 207.822 228.599, 222 214.520, 222 213.216 C 222 212.621, 222.858 211.862, 223.908 211.529 C 224.957 211.196, 226.108 210.153, 226.467 209.212 C 226.989 207.839, 226.869 207.748, 225.859 208.750 C 224.010 210.586, 221.561 210.277, 219.447 207.941 C 218.020 206.365, 217.833 205.487, 218.649 204.191 C 219.967 202.100, 222.845 201.445, 224.306 202.906 C 225.098 203.698, 225.034 204.345, 224.075 205.250 C 223.015 206.250, 222.658 206.249, 222.290 205.244 C 222.036 204.553, 221.414 204.244, 220.907 204.558 C 220.400 204.871, 220.683 205.826, 221.536 206.679 C 222.938 208.081, 223.286 208.051, 225.149 206.365 C 226.282 205.339, 227.500 204.607, 227.855 204.739 C 228.210 204.870, 228.502 204.232, 228.504 203.321 C 228.507 202.409, 229.069 201.477, 229.754 201.249 C 230.439 201.020, 231 200.258, 231 199.555 C 231 198.711, 230.098 198.450, 228.344 198.785 C 226.498 199.138, 225.277 198.732, 224.344 197.455 C 223.070 195.714, 223 195.733, 223 197.834 M 87.183 199.500 C 87.146 201.150, 87.488 204.300, 87.943 206.500 C 89.032 211.765, 89.125 207.035, 88.051 201 C 87.451 197.626, 87.233 197.250, 87.183 199.500 M 121.405 198.155 C 120.962 198.870, 121.130 199.038, 121.845 198.595 C 122.480 198.203, 123 197.684, 123 197.441 C 123 196.607, 122.117 197.002, 121.405 198.155 M 146.079 198.583 C 146.127 199.748, 146.364 199.985, 146.683 199.188 C 146.972 198.466, 146.936 197.603, 146.604 197.271 C 146.272 196.939, 146.036 197.529, 146.079 198.583 M 53.595 203.577 C 54.038 207.156, 56.322 212.309, 60.122 218.307 L 62.145 221.500 61.461 218 C 60.753 214.379, 54.506 200, 53.640 200 C 53.371 200, 53.350 201.610, 53.595 203.577 M 138 200.878 C 138 202.181, 140.583 204.084, 141.333 203.333 C 142.084 202.583, 140.181 200, 138.878 200 C 138.395 200, 138 200.395, 138 200.878 M 145.079 202.583 C 145.127 203.748, 145.364 203.985, 145.683 203.188 C 145.972 202.466, 145.936 201.603, 145.604 201.271 C 145.272 200.939, 145.036 201.529, 145.079 202.583 M 35 204 C 35 204.733, 35.300 205.033, 35.667 204.667 C 36.033 204.300, 36.033 203.700, 35.667 203.333 C 35.300 202.967, 35 203.267, 35 204 M 128.669 203.664 C 127.620 204.713, 127.886 206.188, 129 205.500 C 129.550 205.160, 130 205.584, 130 206.441 C 130 207.298, 130.450 208, 131 208 C 131.550 208, 132 208.648, 132 209.441 C 132 210.234, 132.369 211.110, 132.819 211.388 C 133.270 211.667, 133.447 210.595, 133.214 209.007 C 132.771 205.984, 129.819 202.515, 128.669 203.664 M 37.230 206.004 C 36.553 207.087, 36 208.724, 36 209.641 C 36 211.152, 36.166 211.164, 37.750 209.766 C 40.832 207.046, 45.874 210.560, 44.399 214.401 C 43.694 216.240, 40.708 216.976, 38.642 215.820 C 37.631 215.254, 37 215.263, 37 215.843 C 37 216.362, 37.788 217.093, 38.750 217.467 C 40.358 218.093, 40.327 218.289, 38.379 219.880 C 37.212 220.832, 35.922 222.671, 35.511 223.966 C 35.026 225.493, 37.627 223.406, 42.914 218.026 C 47.397 213.464, 50.815 209.481, 50.509 209.175 C 50.203 208.869, 49.192 209.379, 48.263 210.308 C 46.677 211.894, 46.325 211.754, 42.517 208.016 C 38.639 204.211, 38.405 204.122, 37.230 206.004 M 137.500 205 C 137.840 205.550, 138.343 206, 138.618 206 C 138.893 206, 138.840 205.550, 138.500 205 C 138.160 204.450, 137.657 204, 137.382 204 C 137.107 204, 137.160 204.450, 137.500 205 M 149.600 205.600 C 149.244 206.527, 149.178 207.511, 149.453 207.786 C 149.728 208.061, 150.244 207.527, 150.600 206.600 C 150.956 205.673, 151.022 204.689, 150.747 204.414 C 150.472 204.139, 149.956 204.673, 149.600 205.600 M 44 205.878 C 44 206.360, 44.635 207.282, 45.411 207.926 C 46.376 208.727, 47.027 208.765, 47.470 208.049 C 47.826 207.472, 47.840 206.550, 47.500 206 C 46.738 204.768, 44 204.672, 44 205.878 M 55 205.941 C 55 206.459, 55.445 207.157, 55.989 207.493 C 56.555 207.843, 56.723 207.442, 56.382 206.552 C 55.717 204.820, 55 204.503, 55 205.941 M 128.733 209.124 C 129.412 209.808, 130.219 210.115, 130.526 209.807 C 130.834 209.499, 130.279 208.940, 129.293 208.564 C 127.868 208.022, 127.753 208.136, 128.733 209.124 M 136.779 211.622 C 137.083 213.216, 137.543 213.739, 137.995 213.007 C 138.475 212.232, 138.908 212.541, 139.268 213.915 C 139.567 215.062, 140.336 216, 140.974 216 C 141.643 216, 141.238 214.739, 140.022 213.030 C 138.858 211.397, 137.543 209.835, 137.098 209.561 C 136.653 209.286, 136.509 210.213, 136.779 211.622 M 174.500 210.491 C 173.950 210.675, 172.244 211.103, 170.709 211.442 C 169.174 211.781, 168.185 212.490, 168.511 213.018 C 168.853 213.572, 168.379 213.699, 167.388 213.319 C 166.308 212.904, 165.914 213.052, 166.325 213.717 C 166.697 214.318, 166.228 214.715, 165.240 214.637 C 163.132 214.471, 162.548 217.502, 163.484 223.744 C 164.136 228.091, 164.186 228.141, 166.136 226.377 C 167.248 225.371, 167.917 223.790, 167.655 222.788 C 167.397 221.803, 167.572 221.235, 168.043 221.527 C 168.514 221.818, 169.361 221.195, 169.924 220.142 C 171.630 216.954, 177.706 214, 182.557 214 C 185.001 214, 187 213.564, 187 213.031 C 187 212.499, 186.251 212.350, 185.336 212.701 C 184.292 213.102, 183.917 212.943, 184.330 212.275 C 184.692 211.689, 184.279 210.937, 183.412 210.605 C 181.779 209.978, 176.250 209.908, 174.500 210.491 M 215.154 211.552 C 215.345 212.532, 216.105 213.536, 216.846 213.782 C 217.706 214.069, 218.066 213.588, 217.846 212.448 C 217.655 211.468, 216.895 210.464, 216.154 210.218 C 215.294 209.931, 214.934 210.412, 215.154 211.552 M 38.250 212.250 C 38.880 214.142, 42 214.411, 42 212.573 C 42 211.646, 41.145 211, 39.917 211 C 38.695 211, 38.005 211.517, 38.250 212.250 M 58.080 213 C 59.538 216.061, 60 216.628, 60 215.358 C 60 214.821, 59.300 213.509, 58.445 212.441 C 56.978 210.611, 56.958 210.643, 58.080 213 M 83 211.892 C 83 212.566, 82.480 212.797, 81.845 212.405 C 81.101 211.945, 80.964 212.132, 81.458 212.933 C 82.004 213.815, 82.536 213.864, 83.296 213.104 C 83.885 212.515, 84.059 211.726, 83.683 211.350 C 83.308 210.974, 83 211.218, 83 211.892 M 179 212 C 179 212.550, 179.702 213, 180.559 213 C 181.416 213, 181.840 212.550, 181.500 212 C 181.160 211.450, 180.459 211, 179.941 211 C 179.423 211, 179 211.450, 179 212 M 148 213 C 148 213.733, 148.300 214.033, 148.667 213.667 C 149.033 213.300, 149.033 212.700, 148.667 212.333 C 148.300 211.967, 148 212.267, 148 213 M 208.750 213.748 C 206.047 214.364, 206.553 218.661, 209.560 220.631 C 211.867 222.143, 212.272 222.156, 213.663 220.766 C 216.574 217.854, 213.019 212.776, 208.750 213.748 M 209 217.393 C 209 219.089, 211.704 220.287, 212.527 218.956 C 212.852 218.430, 212.840 217.550, 212.500 217 C 211.576 215.505, 209 215.794, 209 217.393 M 174.962 219.938 L 171.500 222.876 177.358 221.544 C 180.580 220.812, 183.939 219.490, 184.822 218.606 C 186.297 217.131, 186.101 217, 182.427 217 C 179.451 217, 177.537 217.753, 174.962 219.938 M 140.927 225.530 C 143.500 232.986, 143.834 233.078, 145.370 226.750 C 145.858 224.740, 145.661 224, 144.636 224 C 143.864 224, 143.010 223.145, 142.736 222.099 C 142.463 221.054, 141.369 219.733, 140.306 219.164 C 138.500 218.197, 138.541 218.617, 140.927 225.530 M 175.333 220.667 C 175.700 221.033, 176.300 221.033, 176.667 220.667 C 177.033 220.300, 176.733 220, 176 220 C 175.267 220, 174.967 220.300, 175.333 220.667 M 22 221.378 C 22 221.586, 22.681 223.386, 23.513 225.378 C 24.346 227.370, 25.480 229, 26.034 229 C 26.588 229, 26.122 227.200, 25 225 C 23.878 222.800, 22.743 221, 22.480 221 C 22.216 221, 22 221.170, 22 221.378 M 203.530 221.951 C 202.667 223.348, 203.767 225, 205.559 225 C 207.395 225, 207.410 223.585, 205.589 222.074 C 204.624 221.273, 203.973 221.235, 203.530 221.951 M 26.500 223 C 26.840 223.550, 27.568 224, 28.118 224 C 28.668 224, 28.840 223.550, 28.500 223 C 28.160 222.450, 27.432 222, 26.882 222 C 26.332 222, 26.160 222.450, 26.500 223 M 141 223 C 141 223.733, 141.300 224.033, 141.667 223.667 C 142.033 223.300, 142.033 222.700, 141.667 222.333 C 141.300 221.967, 141 222.267, 141 223 M 165.405 225.155 C 164.962 225.870, 165.130 226.038, 165.845 225.595 C 166.480 225.203, 167 224.684, 167 224.441 C 167 223.607, 166.117 224.002, 165.405 225.155 M 196.015 226.628 C 196.024 227.107, 196.417 228.111, 196.890 228.857 C 197.413 229.681, 197.991 229.824, 198.364 229.220 C 198.702 228.674, 198.308 227.671, 197.489 226.991 C 196.670 226.311, 196.007 226.148, 196.015 226.628 M 143 229 C 143 229.733, 143.300 230.033, 143.667 229.667 C 144.033 229.300, 144.033 228.700, 143.667 228.333 C 143.300 227.967, 143 228.267, 143 229 M 215.415 232.185 C 212.918 234.487, 209.478 238.199, 207.771 240.435 C 205.833 242.973, 207.735 241.503, 212.834 236.523 C 217.325 232.136, 221 228.424, 221 228.273 C 221 227.382, 219.440 228.475, 215.415 232.185 M 171 230 C 171 230.733, 171.300 231.033, 171.667 230.667 C 172.033 230.300, 172.033 229.700, 171.667 229.333 C 171.300 228.967, 171 229.267, 171 230 M 87.810 233.500 C 87.585 235.425, 87.761 237, 88.201 237 C 88.640 237, 89 235.425, 89 233.500 C 89 231.575, 88.824 230, 88.609 230 C 88.395 230, 88.035 231.575, 87.810 233.500 M 94.158 235 C 94.158 236.375, 94.385 236.938, 94.662 236.250 C 94.940 235.563, 94.940 234.438, 94.662 233.750 C 94.385 233.063, 94.158 233.625, 94.158 235 M 97.441 236.096 C 97.068 236.699, 97.492 237.920, 98.382 238.810 C 99.873 240.301, 100 240.215, 100 237.714 C 100 234.953, 98.668 234.110, 97.441 236.096 M 41.290 237.348 C 38.974 237.982, 36.660 238.950, 36.147 239.500 C 35.634 240.050, 35.444 241.976, 35.725 243.780 C 36.198 246.820, 36.342 246.930, 37.692 245.280 C 38.493 244.301, 38.880 244.036, 38.552 244.691 C 37.958 245.875, 39.364 245.831, 48.931 244.367 C 51.593 243.959, 52.041 243.614, 50.931 242.826 C 49.820 242.038, 49.930 241.952, 51.424 242.441 C 53.951 243.268, 62 242.040, 62 240.827 C 62 240.307, 61.555 240.157, 61.011 240.493 C 60.462 240.832, 60.267 240.467, 60.573 239.671 C 60.939 238.715, 60.053 237.866, 57.912 237.119 C 53.931 235.731, 46.843 235.829, 41.290 237.348 M 101.670 237.417 C 101.371 238.197, 101.813 239.098, 102.653 239.420 C 104.978 240.312, 106.198 239.055, 104.579 237.436 C 103.789 236.646, 102.934 236, 102.678 236 C 102.423 236, 101.969 236.638, 101.670 237.417 M 214.872 238.750 C 213.629 240.336, 213.664 240.371, 215.250 239.128 C 216.916 237.821, 217.445 237, 216.622 237 C 216.415 237, 215.627 237.787, 214.872 238.750 M 66.667 239.667 C 65.532 240.801, 65.930 242, 67.441 242 C 68.234 242, 69.157 241.555, 69.493 241.011 C 69.856 240.424, 69.407 240.290, 68.388 240.681 C 67.224 241.128, 66.904 240.964, 67.395 240.170 C 68.180 238.899, 67.739 238.594, 66.667 239.667 M 54.333 241.667 C 54.700 242.033, 55.300 242.033, 55.667 241.667 C 56.033 241.300, 55.733 241, 55 241 C 54.267 241, 53.967 241.300, 54.333 241.667 M 140 242 C 140 242.733, 140.300 243.033, 140.667 242.667 C 141.033 242.300, 141.033 241.700, 140.667 241.333 C 140.300 240.967, 140 241.267, 140 242 M 195 242.989 C 193.625 243.320, 192.493 244.020, 192.485 244.545 C 192.476 245.070, 192.072 246.128, 191.586 246.895 C 190.891 247.993, 191.260 248.184, 193.321 247.789 C 194.761 247.514, 195.702 247.674, 195.411 248.144 C 194.787 249.154, 191.619 249.286, 190.675 248.342 C 190.313 247.980, 190.519 247.080, 191.131 246.342 C 191.892 245.426, 191.908 245, 191.181 245 C 189.402 245, 188.755 247, 190.036 248.544 C 190.701 249.345, 192.020 250, 192.967 250 C 195.327 250, 198.233 246.579, 197.830 244.276 C 197.574 242.811, 196.939 242.522, 195 242.989 M 77.333 243.667 C 77.700 244.033, 78.300 244.033, 78.667 243.667 C 79.033 243.300, 78.733 243, 78 243 C 77.267 243, 76.967 243.300, 77.333 243.667 M 196 245 C 196 245.733, 196.300 246.033, 196.667 245.667 C 197.033 245.300, 197.033 244.700, 196.667 244.333 C 196.300 243.967, 196 244.267, 196 245 M 208.473 246.044 C 208.148 246.570, 208.809 247, 209.941 247 C 212.356 247, 212.599 246.444, 210.532 245.651 C 209.725 245.341, 208.798 245.518, 208.473 246.044 M 214.100 248.705 C 214.829 249.917, 215.640 250.694, 215.903 250.431 C 216.166 250.168, 215.570 249.176, 214.579 248.226 C 212.857 246.577, 212.835 246.598, 214.100 248.705 M 94.393 249.582 C 94.727 250.452, 95 251.577, 95 252.082 C 95 253.585, 97.739 253.123, 98.356 251.515 C 98.687 250.651, 98.132 249.606, 97.029 249.015 C 94.379 247.597, 93.688 247.746, 94.393 249.582 M 37.507 249.989 C 37.157 250.555, 37.558 250.723, 38.448 250.382 C 40.180 249.717, 40.497 249, 39.059 249 C 38.541 249, 37.843 249.445, 37.507 249.989 M 89.173 250.659 C 89.594 252.848, 92.500 253.157, 92.500 251.014 C 92.500 250.196, 91.672 249.368, 90.659 249.173 C 89.323 248.916, 88.916 249.323, 89.173 250.659 M 258.211 251.601 C 257.501 252.370, 257.362 253, 257.902 253 C 258.940 253, 260.443 251.098, 259.850 250.534 C 259.658 250.351, 258.920 250.831, 258.211 251.601 M 45 252.059 C 45 252.641, 45.450 252.840, 46 252.500 C 46.550 252.160, 47 251.684, 47 251.441 C 47 251.198, 46.550 251, 46 251 C 45.450 251, 45 251.477, 45 252.059 M 208.813 251.683 C 209.534 251.972, 210.397 251.936, 210.729 251.604 C 211.061 251.272, 210.471 251.036, 209.417 251.079 C 208.252 251.127, 208.015 251.364, 208.813 251.683" stroke="none" fill="#000000" fill-rule="evenodd"/>
</svg>