<?xml version="1.0" encoding="UTF-8"?>
<svg id="Layer_1" data-name="Layer 1" xmlns="http://www.w3.org/2000/svg" viewBox="0 0 2316.07 506.96">
  <defs>
    <style>
      .cls-1 {
        fill: #fdf8f1;
      }

      .cls-2 {
        fill: #a76101;
      }

      .cls-3 {
        fill: #cbbde5;
      }

      .cls-4 {
        fill: #776db2;
      }

      .cls-5 {
        fill: #4d4c4c;
      }

      .cls-6 {
        fill: #fff0c5;
      }

      .cls-7 {
        fill: #5d6720;
      }

      .cls-8 {
        fill: #e4e8c5;
      }
    </style>
  </defs>
  <g>
    <path class="cls-5" d="M571.35,75.91c.31.49,7.63,3.85,10.08,5.89,28.17,23.49,5.47,51.29-8.43,74.71-16.41,27.64-33.93,54.73-51.02,81.95-15.22,12.97-31.53-7.43-16.67-19.22,3.87-3.07,8.7-2.4,12.02-5.88l55.81-92.51c3.68-14.4-2.62-21.14-14.73-26.88l-170.07,276.87c-3.01,1.9-15.98-6.62-19.55-8.62-17.17-9.65-33.41-21.04-49.57-32.26-1.8-1.96-1.47-4.57-.2-6.76,56.29-92.97,110.86-187,168.38-279.22,1.09-1.2,1.85-1,3.24-.65,5.48,1.38,23.81,12.73,29.8,16.36,7.42,4.5,35.95,22.55,39.81,27.96.69.96.69,2.56.72,3.76.73.81,8.12-11.31,6.23-13.91-.35-.49-3.01-.71-4.12-1.58-10.86-8.55-21.94-16.63-33.69-23.89-4.4-2.72-29.57-15.37-30.52-16.83-1.97-3.04,6.07-12.17,8.35-14.77,14.97-16.96,40.2-28.52,60.76-13.39,16.61,12.22,15.25,32.88,9.63,50.55-1.19,3.73-7.86,15.84-6.28,18.34ZM569.27,77.34v1.28c.83-.43.83-.85,0-1.28Z"/>
    <path class="cls-7" d="M49.28,119.89c-14.19,0-26.45-4.99-35.44-14.44C5.98,97.2,1.13,85.93.17,73.73c-.95-12.17,2.03-24.14,8.39-33.69,7.27-10.91,18.18-17.79,31.56-19.89,3.34-.52,6.64-.79,9.81-.79,31.09,0,47.01,24.31,48.65,46.9.88,12.15-2.09,24.02-8.37,33.42-7.22,10.81-18.08,17.56-31.41,19.5-3.24.47-6.45.71-9.53.71Z"/>
    <path class="cls-8" d="M41.52,29.06c57.29-9,64.63,74.08,15.98,81.19C-.8,118.77-6.99,36.68,41.52,29.06Z"/>
    <path class="cls-4" d="M86.52,305.24c-8.98-10.47-21.67-16.01-36.7-16.01-.1,0-.2.01-.3.02-.1,0-.2-.02-.3-.02-15.03,0-27.72,5.54-36.7,16.01-7.79,9.09-12.08,21.22-12.08,34.17,0,24.98,16.65,50.27,48.47,50.27.21,0,.41-.02.61-.03.2.01.41.03.61.03,31.82,0,48.47-25.29,48.47-50.27,0-12.95-4.29-25.09-12.08-34.17ZM50.14,371.64c-.21,0-.41.02-.61.03-.2-.01-.41-.03-.61-.03-21.02,0-30.42-16.19-30.42-32.23,0-8.52,2.82-16.69,7.74-22.43,5.53-6.44,13.26-9.71,23-9.71.1,0,.2-.01.3-.02.1,0,.2.02.3.02,9.74,0,17.48,3.27,23,9.71,4.92,5.73,7.74,13.91,7.74,22.43,0,16.04-9.41,32.23-30.42,32.23Z"/>
    <path class="cls-3" d="M41.55,298.87c64.79-9.46,63.65,92.11-1.04,80.93-42.81-7.4-41.32-74.74,1.04-80.93Z"/>
    <path class="cls-2" d="M47.96,254.77c-13.82,0-26.23-5.59-34.95-15.74-7.69-8.95-12.15-20.83-12.56-33.46-.75-23.18,13.22-49.1,45.7-51.22,1.22-.08,2.45-.12,3.66-.12,13.43,0,25.27,4.9,34.23,14.17,7.87,8.14,12.93,19.19,14.23,31.12,1.29,11.81-1.24,23.5-7.11,32.92-6.7,10.74-17.22,17.96-30.43,20.88-4.35.96-8.65,1.45-12.77,1.45Z"/>
    <path class="cls-6" d="M46.74,163.35c49.11-3.2,59.79,70.61,12.05,81.16-57.82,12.77-68.61-77.47-12.05-81.16Z"/>
    <path class="cls-5" d="M147.61,61l226.1-.34c10.56,1.37,11.78,17.76-1.32,19.27h-222.53c-11.42-1.1-13.2-15.21-2.26-18.93Z"/>
    <path class="cls-5" d="M312.4,339.54l65.79,42.72-53.18,48.01c-1.54.25-2.73-.52-4.07-1.03-2.49-.95-26.09-15.44-27.71-17.05-.92-.91-2.14-1.37-2.11-3.09l21.28-69.57Z"/>
    <path class="cls-5" d="M351.27,487.79c3.09,3.26-6.05,2.64-7.08,2.59-16.52-.82-36.49-6.02-53.66-7.71-77.61-7.64-154.23-5.59-229.77,14.42-7.71,2.04-33.87,12.53-39.37,9.24-3.27-1.96-2.68-6.76-.59-9.56,4.49-6.02,43.96-16.2,53.25-18.34,75.36-17.35,163.47-15.97,239.11-.48,5.22,1.07,36.28,7.92,38.11,9.85Z"/>
    <path class="cls-5" d="M146.33,196.52l185.19-.34c10.74,1.4,10.16,16.73,0,18.03l-181.65-.04c-10.1-.19-11.64-13.32-3.54-17.66Z"/>
    <path class="cls-5" d="M146.32,330.77l122.5-.29c11.79.67,10.99,17.82.04,19.27l-119-.04c-10.64-.94-12.84-13.93-3.54-18.94Z"/>
    <path class="cls-5" d="M313.98,436.81l-.07,4.67c-7.99,3.8-22.49,22.99-30.04,24.33-4.03.71-6.38-1.87-6.69-5.65-.3-3.68,8.42-35.87,10.1-37.06,4.09-2.89,21.26,12.81,26.7,13.71Z"/>
    <path class="cls-1" d="M569.27,77.34c.83.43.83.85,0,1.28v-1.28Z"/>
  </g>
  <g>
    <path class="cls-5" d="M687.43,386.79c-11.64,0-21.46-2.46-29.18-7.32-7.71-4.85-13.47-11.07-17.12-18.5-3.57-7.26-5.38-14.83-5.38-22.52,0-10.39,2.67-19.54,7.94-27.2,5.11-7.42,11.93-13.57,20.27-18.29,8.1-4.58,17.19-7.97,27.01-10.07,9.66-2.07,19.56-3.12,29.45-3.12,6.81,0,13.56.55,20.11,1.64,3.32-7.74,6.51-15.79,9.52-23.97,2.18-5.95,4.37-11.92,6.56-17.91-5.99,2.36-12.28,4.79-18.81,7.26-10.63,4.03-21.99,7.98-33.75,11.75-2.78.93-5.51,1.41-8.05,1.41-3.64,0-6.96-.97-9.85-2.87-4.58-3-7.77-7.2-9.48-12.48-1.71-5.28-1.57-10.62.42-15.87,2.12-5.61,6.63-9.66,13.05-11.7,18.11-6.11,34.89-12.24,49.79-18.2,14.1-5.64,27.1-11.24,38.66-16.66,13.84-33.1,28.38-60.82,43.23-82.38,15.46-22.44,31.17-37.67,46.71-45.26,6.68-3.26,13.37-4.91,19.89-4.91,9.67,0,19.07,3.6,27.96,10.71,9.63,7.66,15.44,16.24,17.24,25.49,1.76,9.04.63,18.29-3.34,27.47-3.73,8.63-9.1,17.24-15.93,25.59-6.7,8.17-13.87,15.86-21.31,22.84-9.09,8.41-20.41,17.16-33.68,26.04-12.78,8.55-28.03,17.37-45.36,26.21l-3.93,10.39c-4.39,11.62-9.04,24.11-13.81,37.11-4.19,11.4-8.74,22.73-13.54,33.74,1.06.54,2.14,1.11,3.23,1.69,2.7,1.47,5.35,3.02,7.88,4.62l31.22,17.77c8.68,4.95,17.1,7.46,25.01,7.46,4.02,0,11.63-2.2,25.03-12.69,11.32-8.86,24.3-23.51,38.6-43.55,14.39-20.17,29.59-47.19,45.17-80.32,3.17-6.64,7.68-10.69,13.41-12.09,1.83-.44,3.68-.67,5.5-.67,3.45,0,6.88.79,10.21,2.36,5.11,2.41,8.93,6.17,11.36,11.16,2.64,5.46,2.35,11.47-.86,17.9-16.86,35.95-33.3,66.22-48.8,89.85-15.72,23.97-31.74,42.09-47.61,53.85-16.31,12.09-33.81,18.21-52.01,18.21-11.47,0-22.13-1.79-31.68-5.33-9.33-3.46-17.98-7.72-25.69-12.68-7.33-4.7-14.37-8.97-20.91-12.68-2.22-1.33-4.54-2.62-7-3.91-.86-.45-1.71-.88-2.54-1.28-8.81,14.2-18.89,26.16-30.01,35.6-12.72,10.79-27.79,16.27-44.79,16.27ZM716.45,323.86c-9.2.25-16.58,1.41-21.97,3.44-7.34,2.77-10.57,5.32-11.99,6.97-2.53,2.96-2.71,4.22-2.71,4.23,0,2.46.71,2.71,1.22,2.88,3.28,1.14,5.3,1.37,6.42,1.37,4.27,0,9.41-1.9,15.28-5.65,4.36-2.79,8.97-7.23,13.74-13.25ZM887.42,97.15c-1.69.79-4.42,2.38-8.62,5.6-4.81,3.69-10.75,10.18-17.65,19.31-4.03,5.33-8.38,12-13,19.93.09-.07.18-.14.27-.21,5.39-4.21,10.31-8.41,14.6-12.49,7.96-7.31,13.76-13.53,17.32-18.54,3.44-4.86,5.66-8.8,6.6-11.71.2-.63.36-1.26.47-1.88Z"/>
    <path class="cls-5" d="M687.43,381.44c-10.66,0-19.44-2.17-26.33-6.5-6.89-4.33-11.94-9.78-15.16-16.33-3.22-6.55-4.83-13.27-4.83-20.16,0-9.33,2.33-17.38,7-24.16,4.66-6.77,10.83-12.33,18.49-16.66,7.66-4.33,16.16-7.5,25.49-9.5,9.33-2,18.77-3,28.33-3,8,0,15.77.78,23.33,2.33,4-9.11,7.77-18.49,11.33-28.16,3.55-9.66,7.11-19.38,10.66-29.16-9.33,3.78-19.28,7.66-29.83,11.66-10.55,4-21.72,7.89-33.49,11.66-5.33,1.78-9.78,1.5-13.33-.83-3.56-2.33-6-5.55-7.33-9.66-1.33-4.11-1.22-8.22.33-12.33,1.55-4.11,4.77-6.94,9.66-8.5,18.44-6.22,35.16-12.33,50.15-18.33,15-6,28.6-11.88,40.82-17.66,14-33.77,28.49-61.54,43.49-83.31,15-21.77,29.88-36.27,44.66-43.49,14.77-7.22,28.83-5.5,42.16,5.16,8.66,6.89,13.77,14.33,15.33,22.33,1.55,8,.55,16.11-3,24.33-3.56,8.22-8.61,16.33-15.16,24.33-6.56,8-13.5,15.44-20.83,22.33-8.89,8.22-19.89,16.72-32.99,25.49-13.11,8.78-28.66,17.72-46.66,26.83l-4.66,12.33c-4.45,11.78-9.05,24.16-13.83,37.16-4.78,13-9.95,25.72-15.5,38.16,2.44,1.11,5,2.39,7.66,3.83,2.67,1.45,5.22,2.95,7.66,4.5,11.33,6.45,21.77,12.39,31.33,17.83,9.55,5.45,18.77,8.16,27.66,8.16,7.11,0,16.55-4.61,28.33-13.83,11.77-9.22,24.99-24.1,39.66-44.66,14.66-20.55,29.88-47.6,45.66-81.15,2.44-5.11,5.72-8.16,9.83-9.16,4.11-1,8.16-.55,12.16,1.33,4,1.89,6.94,4.78,8.83,8.66,1.88,3.89,1.61,8.28-.83,13.16-16.89,35.99-33.05,65.77-48.49,89.31-15.44,23.55-30.88,41.05-46.32,52.49-15.44,11.44-31.72,17.16-48.82,17.16-10.89,0-20.83-1.67-29.83-5-9-3.33-17.22-7.38-24.66-12.16-7.45-4.77-14.5-9.05-21.16-12.83-2.22-1.33-4.61-2.67-7.17-4-2.56-1.33-4.95-2.44-7.16-3.33-9.11,15.55-19.55,28.33-31.33,38.32-11.78,10-25.55,15-41.32,15ZM687.43,348.11c5.33,0,11.38-2.17,18.16-6.5,6.77-4.33,13.83-11.94,21.16-22.83-1.11-.22-2.17-.33-3.17-.33h-3.17c-11.78,0-21.05,1.28-27.83,3.83-6.78,2.56-11.5,5.39-14.16,8.5-2.67,3.11-4,5.66-4,7.66,0,4.22,1.61,6.89,4.83,8,3.22,1.11,5.94,1.67,8.16,1.67ZM832.72,159.16c7.11-4.44,13.44-8.83,19-13.16,5.55-4.33,10.55-8.61,15-12.83,8.22-7.55,14.21-14,18-19.33,3.77-5.33,6.22-9.72,7.33-13.16,1.11-3.44,1.22-6.83.33-10.16-.22-.22-1.78.06-4.67.83-2.89.78-6.95,3.17-12.16,7.16-5.22,4-11.45,10.78-18.66,20.33-7.22,9.55-15.28,23-24.16,40.32Z"/>
    <path class="cls-5" d="M1130.65,369.13c-12,0-21.53-3.92-28.34-11.65-6.64-7.52-10-16.05-10-25.37,0-13.02,4.24-24.62,12.6-34.46,7.98-9.39,18.19-17.24,30.34-23.31l5.39-2.86c-2.9-4.25-6.34-8.81-10.29-13.61-4.03-4.9-8.87-10.23-14.41-15.9-4.21,6.96-8.77,14.24-13.62,21.74-12.83,19.86-27.47,39.76-43.53,59.16-10.43,12.47-20.85,22.82-30.98,30.79-10.8,8.5-23.52,12.81-37.8,12.81s-25.86-4.68-35.94-13.9c-10.22-9.35-15.4-22.5-15.4-39.11,0-8.04,1.09-18.87,3.23-32.18,2.11-13.09,4.87-27.54,8.22-42.94,3.34-15.34,6.82-30.31,10.37-44.48,1.75-7,5.35-11.74,10.7-14.1,2.94-1.3,6.01-1.95,9.13-1.95,2.05,0,4.15.29,6.25.85,5.26,1.43,9.58,4.31,12.85,8.58,2.48,3.23,4.96,8.85,2.76,17.27-2.68,10.5-5.3,21.44-7.79,32.48-2.54,11.27-4.77,22.12-6.62,32.28-1.88,10.25-3.44,19.45-4.64,27.34-1.18,7.69-1.77,13.36-1.77,16.86s.67,6.25,2.03,8.81c.95,1.79,4.12,2.17,6.61,2.17,3.77,0,8.37-1.82,13.66-5.41,5.78-3.92,13.48-11.65,22.88-22.98,14.89-18.17,28.56-36.84,40.62-55.48,6.71-10.37,12.78-20.25,18.08-29.42-5.1-5.59-9.33-11.43-12.61-17.42-4.2-7.64-6.33-16.47-6.33-26.23s2.17-18.74,6.45-25.77c4.26-7.01,9.76-12.37,16.36-15.93,6.54-3.52,13.34-5.31,20.2-5.31,10.95,0,19.57,2.4,25.62,7.13,5.97,4.67,10.11,10.73,12.32,17.99,2.09,6.89,2.77,14.09,2.04,21.42-.86,10.91-4.85,23.03-11.88,36,.79.79,1.56,1.56,2.33,2.33,8.64,8.42,16.72,16.67,23.97,24.48,5.98,6.45,11.23,12.81,15.67,18.98,14.89-9.83,28.45-20.04,40.38-30.38,12.95-11.22,22.87-21.56,29.49-30.75.04-.05.08-.1.11-.15,4.08-5.26,8.99-8.08,14.59-8.39.43-.02.86-.04,1.28-.04,4.76,0,9.2,1.48,13.18,4.39,4.29,3.15,7.2,7.3,8.65,12.34,1.58,5.56.29,11.21-3.84,16.82-9.51,13.14-22.31,26.52-38.02,39.74-14.75,12.41-31.12,24.3-48.72,35.37,1.51,10.68.22,21.71-3.85,32.86-5.21,13.72-13.1,25.26-23.5,34.35-10.74,9.39-23.69,14.16-38.51,14.16ZM1147.21,315.98c-3.11,2.16-5.64,4.45-7.56,6.85.5-.33,1.03-.7,1.58-1.09,2.26-1.59,4.25-3.5,5.98-5.77ZM997.35,168.51c-7.62,0-14.41-2.8-20.19-8.31-5.85-5.57-8.82-12.31-8.82-20.03v-1c.25-10.12,2.58-18.07,6.94-23.75,4.38-5.7,9.87-9.48,16.34-11.24,3.22-.87,6.48-1.31,9.68-1.31,2.96,0,5.95.38,8.88,1.12,6.2,1.59,11.49,4.67,15.73,9.18,4.51,4.8,6.79,10.74,6.79,17.67,0,9.69-3.16,18.41-9.4,25.92-6.48,7.8-15.21,11.76-25.94,11.76Z"/>
    <path class="cls-5" d="M990.02,361.11c-12.44,0-23.22-4.17-32.33-12.5-9.11-8.33-13.66-20.05-13.66-35.16,0-7.77,1.05-18.21,3.17-31.33,2.11-13.11,4.83-27.33,8.16-42.66,3.33-15.33,6.77-30.1,10.33-44.32,1.33-5.33,3.88-8.83,7.66-10.5,3.78-1.67,7.72-1.94,11.83-.83,4.11,1.11,7.44,3.33,10,6.67,2.55,3.33,3.17,7.55,1.83,12.66-2.67,10.45-5.28,21.33-7.83,32.66-2.56,11.33-4.78,22.16-6.67,32.49-1.89,10.33-3.45,19.49-4.66,27.49-1.22,8-1.83,13.89-1.83,17.66,0,4.22.88,8,2.67,11.33,1.78,3.33,5.55,5,11.33,5,4.88,0,10.44-2.11,16.66-6.33,6.22-4.22,14.22-12.21,23.99-23.99,15.11-18.44,28.77-37.1,40.99-55.99,12.22-18.88,22.1-35.77,29.66-50.65,2.44-4.44,5.61-7.05,9.5-7.83,3.88-.78,7.66-.17,11.33,1.83,3.67,2,6.33,4.83,8,8.5,1.67,3.67,1.38,7.72-.83,12.16-8.22,15.78-18.72,33.55-31.49,53.32-12.78,19.77-27.16,39.32-43.16,58.65-10.22,12.22-20.28,22.22-30.16,29.99-9.89,7.78-21.38,11.66-34.49,11.66ZM997.35,163.16c-6.22,0-11.72-2.28-16.5-6.83-4.78-4.55-7.16-9.94-7.16-16.16v-1c.22-8.88,2.17-15.71,5.83-20.49,3.67-4.77,8.16-7.88,13.5-9.33,5.33-1.44,10.61-1.5,15.83-.17,5.22,1.33,9.61,3.89,13.16,7.66,3.55,3.78,5.33,8.45,5.33,14,0,8.45-2.72,15.94-8.16,22.5-5.45,6.56-12.72,9.83-21.83,9.83ZM1130.65,363.78c-10.44,0-18.55-3.28-24.33-9.83-5.78-6.55-8.66-13.83-8.66-21.83,0-11.77,3.78-22.1,11.33-30.99,7.55-8.88,17.1-16.22,28.66-22l10.66-5.66c-3.56-5.77-8.16-12.11-13.83-18.99-5.66-6.88-12.72-14.44-21.16-22.66-7.55-7.55-14.5-14.5-20.83-20.83-6.33-6.33-11.39-12.94-15.16-19.83-3.78-6.88-5.67-14.77-5.67-23.66s1.88-16.77,5.67-22.99c3.77-6.22,8.55-10.88,14.33-14,5.77-3.11,11.66-4.66,17.66-4.66,9.77,0,17.21,2,22.33,6,5.11,4,8.61,9.11,10.5,15.33,1.88,6.22,2.5,12.66,1.83,19.33-.89,11.33-5.33,23.89-13.33,37.66.88.67,1.78,1.45,2.67,2.33.88.89,1.78,1.78,2.67,2.67,8.66,8.45,16.6,16.55,23.83,24.33,7.22,7.78,13.27,15.33,18.16,22.66,16.88-10.88,31.99-22.1,45.32-33.66,13.33-11.55,23.44-22.1,30.33-31.66,3.11-4,6.66-6.11,10.66-6.33,4-.22,7.66.89,11,3.33,3.33,2.45,5.55,5.61,6.66,9.5,1.11,3.89.11,7.95-3,12.16-9.33,12.89-21.72,25.83-37.16,38.82-15.44,13-32.49,25.28-51.15,36.83,2.22,10.89,1.22,22.11-3,33.66-4.89,12.89-12.22,23.61-22,32.16-9.78,8.56-21.44,12.83-34.99,12.83ZM1108.66,177.82c2.22-5.55,3.55-10.22,4-14,.44-3.55.17-5.55-.83-6-1-.44-1.83-.67-2.5-.67-2.45,0-4.06.72-4.83,2.17-.78,1.45-1.11,3-1,4.67.11,1.67.17,2.83.17,3.5,0,2,1.67,5.45,5,10.33ZM1130.65,332.45c3.11,0,7.66-2.11,13.66-6.33,6-4.22,10.44-10.44,13.33-18.66.22-.44.38-1,.5-1.67.11-.67.28-1.44.5-2.33l-7,3.67c-7.78,4-13.5,8.56-17.16,13.66-3.67,5.11-5.5,8.89-5.5,11.33,0,.22-.06.33-.17.33-.11,0,.5,0,1.83,0Z"/>
    <path class="cls-5" d="M1280.94,368.79c-12.73,0-23.5-2.68-31.99-7.97-8.5-5.3-15-12.48-19.31-21.37-4.19-8.62-6.56-18.41-7.03-29.09-.47-10.44.59-21.24,3.14-32.12l30.67-127.73-21.21,1c-.43.02-.84.03-1.25.03-5.98,0-10.8-2.01-14.33-5.99-3.48-3.92-5.39-8.61-5.68-13.94-.29-5.35,1.18-10.27,4.36-14.61,2.36-3.22,6.89-7.14,15.07-7.51l33.29-1.78,9.73-40.77c1.76-7.02,5.28-11.76,10.49-14.13,2.89-1.31,5.93-1.98,9.05-1.98,2.04,0,4.13.29,6.22.85,5.22,1.42,9.52,4.22,12.79,8.34,2.48,3.13,5.04,8.56,3.19,16.68l-6.99,28.76,32.16-1.64c.47-.02.88-.03,1.29-.03,6.22,0,11.11,2.04,14.55,6.07,3.32,3.9,5.15,8.56,5.43,13.85.29,5.32-1.1,10.2-4.12,14.52-2.29,3.27-6.81,7.25-15.32,7.61l-44.28,2.14-33.39,140.06c-2.45,10.62-2.97,18.91-1.52,24.6,1.33,5.24,3.47,8.92,6.36,10.92,3.07,2.13,5.96,3.21,8.61,3.21,6.82,0,14.18-2.8,21.87-8.32,8.15-5.85,15.87-13.74,22.96-23.47,7.04-9.67,12.32-20.44,15.68-32,2.23-7.82,7.09-11.27,10.77-12.79,2.84-1.17,5.79-1.76,8.76-1.76,2.1,0,4.25.3,6.37.89,5.21,1.45,9.4,4.39,12.45,8.75,3.31,4.73,3.95,10.55,1.9,17.29-4.78,16.17-11.96,31.51-21.33,45.57-9.47,14.2-20.9,25.8-33.98,34.48-13.39,8.89-28.68,13.39-45.45,13.39Z"/>
    <path class="cls-5" d="M1280.94,363.44c-11.78,0-21.5-2.39-29.16-7.16s-13.44-11.16-17.33-19.16c-3.89-8-6.06-17-6.5-26.99-.45-10,.55-20.21,3-30.66l32.33-134.64-28.33,1.33c-4.89.22-8.66-1.17-11.33-4.17-2.67-3-4.11-6.55-4.33-10.66-.22-4.11.88-7.83,3.33-11.16,2.44-3.33,6.11-5.11,11-5.33l37.33-2,10.66-44.66c1.33-5.33,3.83-8.83,7.5-10.5,3.67-1.67,7.55-1.94,11.66-.83,4.11,1.11,7.44,3.28,10,6.5,2.55,3.22,3.27,7.28,2.17,12.16l-8.66,35.66,39.32-2c5.11-.22,8.94,1.17,11.5,4.17,2.55,3,3.94,6.56,4.17,10.66.22,4.11-.83,7.83-3.17,11.16s-6.06,5.11-11.16,5.33l-48.32,2.33-34.32,143.97c-2.67,11.55-3.17,20.61-1.5,27.16,1.67,6.56,4.5,11.22,8.5,14,4,2.78,7.88,4.17,11.66,4.17,8,0,16.33-3.11,24.99-9.33,8.66-6.22,16.71-14.44,24.16-24.66,7.44-10.22,12.94-21.44,16.5-33.66,1.33-4.66,3.88-7.77,7.66-9.33,3.77-1.55,7.66-1.78,11.66-.67,4,1.11,7.17,3.33,9.5,6.66s2.72,7.55,1.17,12.66c-4.66,15.78-11.55,30.49-20.66,44.16-9.11,13.66-19.94,24.66-32.49,32.99-12.55,8.33-26.72,12.5-42.49,12.5Z"/>
    <path class="cls-5" d="M1512.22,371.79c-11.44,0-20.89-2.36-28.07-7.03-7.22-4.69-12.55-10.98-15.84-18.72-1.59-3.72-2.81-7.59-3.66-11.61-7.82,7.92-16.29,14.45-25.29,19.51-12.42,6.98-25.57,10.52-39.11,10.52-10.86,0-21.24-2.63-30.86-7.8-9.75-5.24-17.7-13.23-23.62-23.75-5.87-10.43-8.85-23.7-8.85-39.45s3.46-32.36,10.28-47.97c6.76-15.48,16.19-29.68,28.01-42.19,11.83-12.52,25.58-22.65,40.86-30.13,15.45-7.55,31.88-11.37,48.84-11.37,11.06,0,22.16,1.4,32.98,4.17,10.96,2.8,20.69,6.96,28.94,12.37,5.81,3.78,9.08,8.56,9.71,14.21.59,5.29-.67,10.25-3.72,14.76-2.97,4.39-6.95,7.49-11.81,9.21-1.83.64-3.73.97-5.64.97-.53,0-1.07-.03-1.6-.08,1.83,1.37,3.44,3.02,4.81,4.94,3.09,4.34,4.07,9.64,2.9,15.77l-14.68,71.4c-1.75,8.74-.94,12.66-.29,14.21,1.01,2.46,2.23,4.15,3.43,4.75,1.54.77,2.37,1.11,2.75,1.25,1.62-.12,4.85-.92,10.37-4.34,5.07-3.14,11.6-9.35,19.43-18.44,6.77-7.64,13.88-16.74,21.18-27.09,7.35-10.43,14.59-21.33,21.49-32.41,6.92-11.09,13.27-21.79,18.87-31.77,5.59-9.98,10.09-18.37,13.38-24.94,3.63-7.64,9.05-10.29,12.96-11.16,1.66-.37,3.32-.55,4.94-.55,3.5,0,6.92.85,10.16,2.52,4.75,2.45,8.26,6.11,10.42,10.88,2.34,5.14,2.05,10.87-.87,17.01-3.6,7.42-8.42,16.49-14.33,26.99-5.84,10.37-12.5,21.59-19.77,33.35-7.25,11.71-14.94,23.3-22.85,34.44-7.93,11.17-15.82,21.39-23.45,30.36-9.15,10.52-18.59,19.32-28.1,26.2-10.11,7.31-21.65,11.01-34.29,11.01ZM1464.9,203.83c-11.72,0-22.76,2.71-32.82,8.04-10.28,5.46-19.48,12.69-27.34,21.5-7.89,8.84-14.14,18.65-18.56,29.17-4.37,10.4-6.58,20.8-6.58,30.92,0,5.06.66,10.02,1.97,14.73,1.18,4.27,3.23,7.7,6.28,10.47,2.74,2.5,6.91,3.77,12.39,3.77s12.43-2.08,19.93-6.17c7.62-4.16,15.06-11.01,22.13-20.36,4.49-5.99,9.31-13.38,14.31-21.96,5.04-8.65,9.74-17.4,13.99-26,4.27-8.65,7.76-16.13,10.38-22.23,2.31-5.78,6.11-9.71,11.25-11.59,2.49-.91,5.05-1.36,7.61-1.36.88,0,1.76.05,2.64.16-3.73-1.99-8.94-3.93-15.53-5.78-7.82-2.19-15.24-3.3-22.05-3.3Z"/>
    <path class="cls-5" d="M1512.22,366.44c-10.45,0-18.83-2.06-25.16-6.16-6.33-4.11-10.95-9.55-13.83-16.33-2.89-6.77-4.45-14.05-4.66-21.83-9.55,11.55-20.16,20.61-31.83,27.16-11.66,6.56-23.83,9.83-36.49,9.83-10,0-19.44-2.38-28.33-7.16-8.89-4.77-16.05-12-21.5-21.66-5.45-9.66-8.16-21.94-8.16-36.82s3.28-30.83,9.83-45.82c6.55-15,15.55-28.55,26.99-40.66,11.44-12.11,24.55-21.77,39.32-28.99,14.77-7.22,30.27-10.83,46.49-10.83,10.66,0,21.21,1.33,31.66,4,10.44,2.67,19.55,6.56,27.33,11.66,4.44,2.89,6.88,6.33,7.33,10.33.44,4-.5,7.72-2.83,11.16-2.33,3.45-5.39,5.83-9.16,7.16-3.78,1.33-7.78.67-12-2-4.22-2.67-10.5-5.16-18.83-7.5-8.33-2.33-16.16-3.5-23.49-3.5-12.66,0-24.44,2.89-35.33,8.66-10.89,5.78-20.49,13.33-28.83,22.66-8.33,9.33-14.83,19.55-19.5,30.66-4.66,11.11-7,22.11-7,32.99,0,5.56.72,10.94,2.17,16.16,1.44,5.22,4.05,9.55,7.83,13,3.77,3.45,9.11,5.16,16,5.16s14.16-2.28,22.49-6.83c8.33-4.55,16.27-11.83,23.83-21.83,4.66-6.22,9.55-13.72,14.66-22.49,5.11-8.77,9.83-17.55,14.16-26.33,4.33-8.77,7.83-16.27,10.5-22.49,1.78-4.44,4.5-7.33,8.16-8.66,3.67-1.33,7.38-1.38,11.16-.17,3.77,1.22,6.77,3.39,9,6.5,2.22,3.11,2.88,7,2,11.66l-14.66,71.32c-1.56,7.78-1.56,13.55,0,17.33,1.55,3.78,3.55,6.28,6,7.5,2.44,1.22,4,1.83,4.67,1.83,3.55,0,8.11-1.72,13.66-5.16,5.55-3.44,12.44-9.94,20.66-19.5,6.88-7.77,14.05-16.94,21.5-27.49,7.44-10.55,14.66-21.44,21.66-32.66,7-11.21,13.33-21.88,18.99-31.99,5.66-10.11,10.16-18.5,13.5-25.16,2.22-4.66,5.33-7.44,9.33-8.33,4-.88,7.83-.38,11.5,1.5,3.67,1.89,6.33,4.66,8,8.33,1.67,3.67,1.38,7.83-.83,12.5-3.56,7.33-8.28,16.22-14.16,26.66-5.89,10.44-12.44,21.49-19.66,33.16-7.22,11.66-14.78,23.05-22.66,34.16-7.89,11.11-15.61,21.11-23.16,29.99-8.89,10.22-17.94,18.66-27.16,25.33-9.22,6.66-19.61,10-31.16,10Z"/>
    <path class="cls-5" d="M1602.98,368.55c-2.58,0-5.2-.48-7.78-1.41-4.81-1.75-8.58-4.79-11.22-9.04-2.74-4.41-3.53-9.49-2.36-15.09l37.36-156.1c3.55-15.11,7.84-30.92,12.75-46.97,4.89-16.03,10.21-31.46,15.79-45.86,5.61-14.48,11.6-27.49,17.81-38.65,6.38-11.49,13.06-20.28,19.85-26.12,5.47-4.71,11.16-7.09,16.9-7.09,2.42,0,4.85.43,7.22,1.28,9.05,3.12,14.38,10.16,15.36,20.36.84,8.77-.63,19.45-4.37,31.73-3.62,11.86-8.52,24.63-14.58,37.98-5.98,13.17-12.05,26.16-18.05,38.6-4.26,8.97-8.99,17.87-14.05,26.4-2.61,4.41-5.16,8.82-7.62,13.18,6.62-9.05,13.56-16.63,20.74-22.67,10.72-9.01,22.98-13.59,36.44-13.59,12.08,0,22.12,2.46,29.84,7.32,7.77,4.89,13.51,11.47,17.05,19.54,3.42,7.83,4.97,16.64,4.61,26.18-.35,9.27-2.19,18.62-5.48,27.77-.41,1.22-1.4,4.26-2.95,9.01-1.54,4.72-3.25,10.48-5.1,17.11-1.89,6.77-3.77,13.64-5.65,20.62-1.86,6.89-3.4,13.34-4.59,19.17-1.42,6.99-1.72,10.71-1.72,12.6,0,3.2.63,5.84,1.87,7.85.28.45,1.1,1.79,5.11,1.79,3.25,0,7.3-1.03,12.06-3.07,4.85-2.08,10-5.62,15.31-10.51,3.63-3.42,7.45-8.15,11.33-14.01,3.93-5.96,7.61-12.66,10.92-19.93,3.31-7.26,5.96-14.5,7.87-21.52,2.21-8.48,7.16-11.98,10.92-13.42,2.65-1.01,5.37-1.52,8.1-1.52,2.29,0,4.62.36,6.91,1.08,5.03,1.58,9.1,4.57,12.11,8.87,2.26,3.23,4.49,8.73,2.26,16.54-3.86,13.83-9.32,27.53-16.24,40.68-7.04,13.38-15.66,24.75-25.63,33.8-7.86,7.17-16.51,13.17-25.67,17.81-9.49,4.8-19.66,7.24-30.24,7.24-14.34,0-26.34-4.92-35.68-14.64-9.28-9.65-13.99-22.11-13.99-37.03,0-7.46,1.05-16.13,3.12-25.78,2.02-9.42,4.4-18.95,7.09-28.34,2.67-9.35,5.22-17.67,7.57-24.72,2.35-7.05,3.95-11.64,4.89-14.01,3.56-10.2,3.3-14.92,2.82-16.82-.74-2.96-1.91-4.92-3.48-5.83-2.05-1.18-3.84-1.78-5.32-1.78-1.87,0-4.02.56-6.41,1.67-1.71.79-4.69,2.74-9.2,7.49-3.83,4.04-8.48,10.52-13.81,19.26-1.98,3.29-5.19,8.72-9.62,16.26-4.35,7.4-9.44,16.23-15.12,26.25-5.54,9.77-11.42,20.25-17.48,31.13-5.97,10.73-11.67,21.24-16.94,31.22-5.33,10.11-9.91,18.98-13.61,26.39-2.66,5.33-6.54,8.82-11.52,10.38-2.13.67-4.31,1-6.48,1Z"/>
    <path class="cls-5" d="M1756.16,361.11c-12.89,0-23.5-4.33-31.83-13-8.33-8.66-12.5-19.77-12.5-33.33,0-7.11,1-15.33,3-24.66,2-9.33,4.33-18.66,7-27.99,2.67-9.33,5.16-17.5,7.5-24.49,2.33-7,3.94-11.61,4.83-13.83,3.11-8.88,4.11-15.55,3-19.99-1.11-4.44-3.11-7.5-6-9.16-2.89-1.67-5.56-2.5-8-2.5-2.67,0-5.56.72-8.66,2.17-3.11,1.45-6.72,4.33-10.83,8.66-4.11,4.33-8.95,11.05-14.49,20.16-2,3.33-5.22,8.78-9.66,16.33-4.45,7.55-9.5,16.33-15.16,26.33-5.66,10-11.5,20.39-17.5,31.16-6,10.78-11.66,21.22-16.99,31.33-5.33,10.11-9.89,18.94-13.66,26.49-2,4-4.78,6.55-8.33,7.66-3.56,1.11-7.16,1-10.83-.33-3.67-1.33-6.5-3.61-8.5-6.83-2-3.22-2.56-6.94-1.67-11.16l37.33-155.96c3.55-15.1,7.77-30.66,12.66-46.66,4.88-16,10.11-31.16,15.66-45.49,5.55-14.33,11.38-26.99,17.49-37.99,6.11-11,12.33-19.22,18.66-24.66,6.33-5.44,12.6-7.05,18.83-4.83,7.11,2.45,11.05,7.72,11.83,15.83.78,8.11-.61,18-4.17,29.66-3.56,11.66-8.33,24.11-14.33,37.33-6,13.22-12,26.05-17.99,38.49-4.22,8.89-8.83,17.55-13.83,25.99-5,8.45-9.72,16.78-14.16,24.99-.22.67-.5,1.22-.83,1.67-.33.45-.72.89-1.17,1.33l-8,32.66,17.66-29.99c8.66-14,17.88-25.1,27.66-33.33,9.77-8.22,20.77-12.33,32.99-12.33,11.11,0,20.1,2.17,26.99,6.5,6.88,4.33,11.88,10.05,15,17.16,3.11,7.11,4.5,15.05,4.17,23.83-.33,8.78-2.06,17.5-5.16,26.16-.45,1.33-1.45,4.39-3,9.16-1.56,4.78-3.28,10.55-5.16,17.33-1.89,6.78-3.78,13.66-5.66,20.66-1.89,7-3.45,13.5-4.67,19.5-1.22,6-1.83,10.55-1.83,13.66,0,4.22.88,7.78,2.67,10.66,1.78,2.89,5,4.33,9.66,4.33,4,0,8.72-1.17,14.16-3.5,5.44-2.33,11.05-6.17,16.83-11.5,4-3.77,8.05-8.77,12.16-14.99,4.11-6.22,7.88-13.11,11.33-20.66,3.44-7.55,6.17-14.99,8.16-22.33,1.33-5.11,3.88-8.38,7.67-9.83,3.77-1.44,7.61-1.55,11.5-.33,3.88,1.22,7,3.5,9.33,6.83,2.33,3.33,2.83,7.33,1.5,12-3.78,13.55-9.05,26.77-15.83,39.66-6.78,12.89-14.94,23.66-24.49,32.33-7.55,6.89-15.72,12.55-24.49,17-8.78,4.45-18.05,6.66-27.83,6.66Z"/>
    <path class="cls-5" d="M1982.1,371.79c-11.44,0-20.89-2.36-28.07-7.03-7.22-4.69-12.55-10.98-15.84-18.72-1.59-3.72-2.81-7.59-3.66-11.61-7.82,7.92-16.29,14.45-25.29,19.51-12.42,6.98-25.57,10.52-39.11,10.52-10.86,0-21.24-2.63-30.86-7.8-9.75-5.24-17.7-13.23-23.62-23.75-5.87-10.43-8.85-23.7-8.85-39.45s3.46-32.36,10.28-47.97c6.76-15.48,16.19-29.68,28.01-42.19,11.83-12.52,25.58-22.65,40.86-30.13,15.45-7.55,31.88-11.37,48.84-11.37,11.06,0,22.16,1.4,32.98,4.17,10.96,2.8,20.69,6.96,28.94,12.37,5.81,3.78,9.08,8.56,9.71,14.21.59,5.29-.67,10.25-3.72,14.76-2.97,4.39-6.95,7.49-11.81,9.21-1.83.64-3.73.97-5.64.97-.53,0-1.07-.03-1.6-.08,1.83,1.37,3.44,3.02,4.81,4.94,3.09,4.34,4.07,9.64,2.9,15.77l-14.68,71.4c-1.75,8.74-.94,12.66-.29,14.21,1.01,2.46,2.23,4.15,3.43,4.75,1.54.77,2.37,1.11,2.75,1.25,1.62-.12,4.85-.92,10.37-4.34,5.07-3.14,11.6-9.35,19.43-18.44,6.77-7.64,13.88-16.74,21.18-27.09,7.35-10.43,14.59-21.33,21.49-32.41,6.92-11.09,13.27-21.79,18.87-31.77,5.59-9.98,10.09-18.37,13.38-24.94,3.63-7.64,9.05-10.29,12.96-11.16,1.66-.37,3.32-.55,4.94-.55,3.5,0,6.92.85,10.16,2.52,4.75,2.45,8.26,6.11,10.42,10.88,2.34,5.14,2.05,10.87-.87,17.01-3.6,7.42-8.42,16.49-14.33,26.99-5.84,10.37-12.5,21.59-19.77,33.35-7.25,11.71-14.94,23.3-22.85,34.44-7.93,11.17-15.82,21.39-23.45,30.36-9.15,10.52-18.59,19.32-28.1,26.2-10.11,7.31-21.65,11.01-34.29,11.01ZM1934.78,203.83c-11.72,0-22.76,2.71-32.82,8.04-10.28,5.46-19.48,12.69-27.34,21.5-7.89,8.84-14.14,18.65-18.56,29.17-4.37,10.4-6.58,20.8-6.58,30.92,0,5.06.66,10.02,1.97,14.73,1.18,4.27,3.23,7.7,6.28,10.47,2.74,2.5,6.91,3.77,12.39,3.77s12.43-2.08,19.93-6.17c7.62-4.16,15.06-11.01,22.13-20.36,4.49-5.99,9.31-13.38,14.31-21.96,5.04-8.65,9.74-17.4,13.99-26,4.27-8.65,7.76-16.13,10.38-22.23,2.31-5.78,6.11-9.71,11.25-11.59,2.49-.91,5.05-1.36,7.61-1.36.88,0,1.76.05,2.64.16-3.73-1.99-8.94-3.93-15.53-5.78-7.82-2.19-15.24-3.3-22.05-3.3Z"/>
    <path class="cls-5" d="M1982.1,366.44c-10.45,0-18.83-2.06-25.16-6.16-6.33-4.11-10.95-9.55-13.83-16.33-2.89-6.77-4.45-14.05-4.66-21.83-9.55,11.55-20.16,20.61-31.83,27.16-11.66,6.56-23.83,9.83-36.49,9.83-10,0-19.44-2.38-28.33-7.16-8.89-4.77-16.05-12-21.5-21.66-5.45-9.66-8.16-21.94-8.16-36.82s3.28-30.83,9.83-45.82c6.55-15,15.55-28.55,26.99-40.66,11.44-12.11,24.55-21.77,39.32-28.99,14.77-7.22,30.27-10.83,46.49-10.83,10.66,0,21.21,1.33,31.66,4,10.44,2.67,19.55,6.56,27.33,11.66,4.44,2.89,6.88,6.33,7.33,10.33.44,4-.5,7.72-2.83,11.16-2.33,3.45-5.39,5.83-9.16,7.16-3.78,1.33-7.78.67-12-2-4.22-2.67-10.5-5.16-18.83-7.5-8.33-2.33-16.16-3.5-23.49-3.5-12.66,0-24.44,2.89-35.33,8.66-10.89,5.78-20.49,13.33-28.83,22.66-8.33,9.33-14.83,19.55-19.5,30.66-4.66,11.11-7,22.11-7,32.99,0,5.56.72,10.94,2.17,16.16,1.44,5.22,4.05,9.55,7.83,13,3.77,3.45,9.11,5.16,16,5.16s14.16-2.28,22.49-6.83c8.33-4.55,16.27-11.83,23.83-21.83,4.66-6.22,9.55-13.72,14.66-22.49,5.11-8.77,9.83-17.55,14.16-26.33,4.33-8.77,7.83-16.27,10.5-22.49,1.78-4.44,4.5-7.33,8.16-8.66,3.67-1.33,7.38-1.38,11.16-.17,3.77,1.22,6.77,3.39,9,6.5,2.22,3.11,2.88,7,2,11.66l-14.66,71.32c-1.56,7.78-1.56,13.55,0,17.33,1.55,3.78,3.55,6.28,6,7.5,2.44,1.22,4,1.83,4.67,1.83,3.55,0,8.11-1.72,13.66-5.16,5.55-3.44,12.44-9.94,20.66-19.5,6.88-7.77,14.05-16.94,21.5-27.49,7.44-10.55,14.66-21.44,21.66-32.66,7-11.21,13.33-21.88,18.99-31.99,5.66-10.11,10.16-18.5,13.5-25.16,2.22-4.66,5.33-7.44,9.33-8.33,4-.88,7.83-.38,11.5,1.5,3.67,1.89,6.33,4.66,8,8.33,1.67,3.67,1.38,7.83-.83,12.5-3.56,7.33-8.28,16.22-14.16,26.66-5.89,10.44-12.44,21.49-19.66,33.16-7.22,11.66-14.78,23.05-22.66,34.16-7.89,11.11-15.61,21.11-23.16,29.99-8.89,10.22-17.94,18.66-27.16,25.33-9.22,6.66-19.61,10-31.16,10Z"/>
    <path class="cls-5" d="M2085.16,368.42c-5.19,0-9.96-1.65-14.18-4.91-5.25-4.05-7.87-9.91-7.57-16.95,1.78-25.04,4.49-50.33,8.05-75.35,3.54-24.95,8.05-50.24,13.4-75.18,1.44-6.93,4.79-11.81,9.94-14.47,3.07-1.58,6.31-2.38,9.64-2.38,1.92,0,3.9.27,5.87.8,5.22,1.41,9.57,4.27,12.95,8.49,3.68,4.6,4.84,10.34,3.36,16.58-1.99,8.92-3.87,18.06-5.59,27.16,1.19-2.19,2.37-4.35,3.52-6.46,5.88-10.76,10.58-18.98,13.99-24.43,8.07-12.91,17.74-23.81,28.74-32.38,11.47-8.93,24.74-13.46,39.45-13.46s25.93,3.98,34.05,11.84c7.95,7.71,12.85,17.77,14.58,29.92,1.65,11.69.59,24.37-3.15,37.69-.89,3.33-2.42,8.7-4.52,15.89-2.09,7.15-4.26,15.06-6.45,23.5-2.19,8.41-4.13,16.53-5.78,24.12-1.58,7.26-2.38,12.87-2.38,16.69,0,2.8.55,5.33,1.67,7.74.46.99,2.57,1.57,5.65,1.57.95,0,2.73-.24,5.86-1.35,1.04-.37,4.15-1.97,10.57-8.79,5.11-5.43,11.98-14.66,20.43-27.44,3.84-5.61,8.6-8.74,14.2-9.36.84-.09,1.67-.14,2.49-.14,4.36,0,8.49,1.3,12.27,3.86,4.45,3.02,7.51,7.1,9.11,12.15,1.19,3.8,1.6,9.79-3.19,16.79-13.52,20.39-25.39,34.48-36.27,43.01-11.24,8.83-23.17,13.31-35.46,13.31-14.05,0-26.02-4.72-35.56-14.02-9.59-9.34-14.45-21.89-14.45-37.32,0-7.44.93-15.87,2.77-25.04,1.79-8.99,3.95-18.13,6.42-27.18,2.44-8.99,4.81-17.18,7.05-24.35,2.2-7.06,3.76-12.18,4.63-15.21,3.33-11.54,3.65-17.09,3.33-19.71-.37-3.02-1.17-4.46-1.75-4.78-1.66-.91-3.66-1.35-6.1-1.35-4.67,0-9.62,1.72-14.7,5.1-5.33,3.55-11.3,10.63-17.75,21.03-2.17,3.7-5.53,9.51-9.9,17.17-4.35,7.61-9.31,16.64-14.75,26.85-5.45,10.22-11.05,20.77-16.82,31.65-5.71,10.76-11.19,21.32-16.28,31.4-5.11,10.11-9.55,18.93-13.32,26.47-3.25,6.49-8.5,10.33-15.18,11.09-.96.11-1.92.16-2.86.16Z"/>
    <path class="cls-5" d="M2240.37,361.11c-12.66,0-23.28-4.17-31.83-12.5-8.55-8.33-12.83-19.49-12.83-33.49,0-7.11.89-15.11,2.67-23.99,1.78-8.88,3.88-17.83,6.33-26.83,2.44-9,4.77-17.05,7-24.16,2.22-7.11,3.77-12.21,4.67-15.33,2.88-10,4.05-17.27,3.5-21.83-.56-4.55-2.06-7.5-4.5-8.83-2.45-1.33-5.33-2-8.66-2-5.78,0-11.66,2-17.66,6-6,4-12.44,11.55-19.33,22.66-2.22,3.78-5.56,9.55-10,17.33-4.45,7.78-9.39,16.78-14.83,26.99-5.45,10.22-11.05,20.77-16.83,31.66-5.78,10.89-11.22,21.38-16.33,31.49-5.11,10.11-9.55,18.94-13.33,26.49-2.45,4.89-6.11,7.61-11,8.16-4.89.55-9.28-.67-13.16-3.67-3.89-3-5.72-7.16-5.5-12.5,1.78-24.88,4.44-49.82,8-74.82,3.55-24.99,8-49.93,13.33-74.81,1.11-5.33,3.5-8.94,7.16-10.83,3.67-1.88,7.55-2.28,11.66-1.17,4.11,1.11,7.5,3.33,10.16,6.66,2.67,3.33,3.44,7.33,2.33,12-2.22,10-4.28,20.05-6.16,30.16-1.89,10.11-3.61,20.05-5.17,29.83,6.88-12.88,13.27-24.71,19.16-35.49,5.88-10.77,10.5-18.83,13.83-24.16,7.77-12.44,16.94-22.77,27.49-30.99,10.55-8.22,22.6-12.33,36.16-12.33s23.21,3.45,30.33,10.33c7.11,6.89,11.44,15.83,13,26.83,1.55,11,.55,22.83-3,35.49-.89,3.33-2.39,8.61-4.5,15.83-2.11,7.22-4.28,15.11-6.5,23.66-2.22,8.55-4.17,16.66-5.83,24.33-1.67,7.66-2.5,13.61-2.5,17.83,0,3.56.72,6.89,2.17,10,1.44,3.11,4.94,4.66,10.5,4.66,2,0,4.55-.55,7.66-1.67,3.11-1.11,7.33-4.5,12.66-10.16,5.33-5.66,12.33-15.05,20.99-28.16,2.88-4.22,6.33-6.55,10.33-7,4-.44,7.72.5,11.16,2.83,3.44,2.33,5.77,5.45,7,9.33,1.22,3.89.38,7.95-2.5,12.16-13.11,19.78-24.83,33.72-35.16,41.82-10.33,8.11-21.05,12.16-32.16,12.16Z"/>
  </g>
</svg>