<?xml version="1.0" encoding="UTF-8"?>
<svg id="Layer_1" data-name="Layer 1" xmlns="http://www.w3.org/2000/svg" viewBox="0 0 1374.38 1393.78">
  <defs>
    <style>
      .cls-1 {
        fill: #fdf8f1;
      }

      .cls-2 {
        fill: #a76101;
      }

      .cls-3 {
        fill: #f9f6f2;
      }

      .cls-4 {
        fill: #cbbde5;
      }

      .cls-5 {
        fill: #776db2;
      }

      .cls-6 {
        fill: #4d4c4c;
      }

      .cls-7 {
        fill: #fff0c5;
      }

      .cls-8 {
        fill: #5d6720;
      }

      .cls-9 {
        fill: #e4e8c5;
      }
    </style>
  </defs>
  <rect class="cls-3" width="1374.38" height="1393.78" rx="323.82" ry="323.82"/>
  <path class="cls-6" d="M470.33,282.25l524.88-.79c24.51,3.17,27.35,41.22-3.05,44.74H475.57c-26.52-2.55-30.64-35.32-5.24-43.95Z"/>
  <path class="cls-6" d="M467.36,596.86l429.91-.78c24.93,3.25,23.59,38.83,0,41.85l-421.7-.08c-23.45-.45-27.02-30.92-8.21-40.99Z"/>
  <path class="cls-6" d="M467.34,908.51l284.38-.67c27.38,1.54,25.52,41.37.1,44.74l-276.26-.09c-24.7-2.17-29.81-32.33-8.22-43.97Z"/>
  <g>
    <path class="cls-6" d="M939,1208.21c21.03-3.71,61.37-57.12,83.59-67.69l.21-13c-15.12-2.51-62.9-46.19-74.29-38.15-4.68,3.31-28.95,92.87-28.11,103.12.86,10.53,7.38,17.71,18.6,15.72Z"/>
    <path class="cls-6" d="M1020.51,1241.94c-210.44-43.1-455.6-46.93-665.28,1.33-25.87,5.96-135.69,34.28-148.17,51.03-5.81,7.79-7.47,21.16,1.64,26.61,15.32,9.18,88.1-20.02,109.54-25.7,210.19-55.68,423.39-61.38,639.32-40.13,47.77,4.7,103.33,19.17,149.3,21.46,2.87.14,28.28,1.87,19.69-7.19-5.1-5.38-91.51-24.44-106.03-27.42Z"/>
    <path class="cls-6" d="M959.2,1050.44c-.06,4.77,3.33,6.04,5.88,8.59,4.5,4.48,70.17,44.77,77.09,47.43,3.73,1.43,7.04,3.57,11.32,2.87l147.97-133.58-183.06-118.88-59.2,193.57Z"/>
    <path class="cls-6" d="M1036.81,811.38c-3.53,6.1-4.47,13.35.55,18.8,44.96,31.22,90.15,62.92,137.92,89.77,9.94,5.59,46.03,29.29,54.41,23.99l144.25-234.83V248.7c-113.15,187.09-223.89,375.65-337.13,562.68Z"/>
  </g>
  <path class="cls-1" d="M1158.35,404.01c1.38.71,1.38,1.42,0,2.13v-2.13Z"/>
  <path class="cls-8" d="M246.86,420.55c-32.95,0-61.4-11.59-82.28-33.52-18.23-19.15-29.49-45.31-31.71-73.65-2.21-28.26,4.71-56.03,19.48-78.2,16.87-25.33,42.21-41.29,73.27-46.17,7.75-1.22,15.41-1.83,22.78-1.83,72.17,0,109.14,56.43,112.95,108.86,2.05,28.2-4.85,55.75-19.43,77.58-16.77,25.1-41.98,40.75-72.92,45.27-7.52,1.1-14.97,1.66-22.13,1.66Z"/>
  <path class="cls-9" d="M228.87,209.7c132.99-20.89,150.02,171.98,37.1,188.48-135.36,19.77-149.73-170.79-37.1-188.48Z"/>
  <path class="cls-5" d="M333.33,850.82c-20.85-24.31-50.31-37.16-85.19-37.16-.23,0-.46.03-.69.04-.23,0-.46-.04-.69-.04-34.89,0-64.34,12.85-85.19,37.16-18.09,21.1-28.05,49.27-28.05,79.33,0,57.99,38.65,116.7,112.51,116.7.48,0,.95-.04,1.43-.07.47.03.95.07,1.43.07,73.86,0,112.51-58.71,112.51-116.7,0-30.06-9.96-58.23-28.05-79.33ZM248.87,1004.96c-.48,0-.95.04-1.43.07-.47-.03-.94-.07-1.43-.07-48.79,0-70.63-37.58-70.63-74.82,0-19.78,6.55-38.75,17.96-52.07,12.83-14.96,30.79-22.54,53.4-22.54.23,0,.46-.03.69-.04.23,0,.46.04.69.04,22.61,0,40.57,7.58,53.4,22.54,11.42,13.31,17.96,32.29,17.96,52.07,0,37.24-21.84,74.82-70.63,74.82Z"/>
  <path class="cls-4" d="M228.93,836.04c150.4-21.95,147.75,213.83-2.42,187.86-99.37-17.18-95.92-173.51,2.42-187.86Z"/>
  <path class="cls-2" d="M243.81,733.65c-32.08,0-60.89-12.98-81.13-36.55-17.85-20.78-28.2-48.36-29.15-77.67-1.75-53.82,30.7-113.98,106.09-118.9,2.84-.19,5.7-.28,8.49-.28,31.18,0,58.66,11.37,79.47,32.89,18.28,18.9,30.01,44.56,33.03,72.24,2.99,27.41-2.87,54.55-16.51,76.42-15.55,24.94-39.98,41.7-70.63,48.47-10.11,2.23-20.08,3.37-29.65,3.37Z"/>
  <path class="cls-7" d="M240.98,521.44c114.01-7.43,138.81,163.92,27.97,188.4-134.23,29.65-159.28-179.84-27.97-188.4Z"/>
</svg>